<?xml version="1.0" encoding="UTF-8" standalone="no"?>
<svg width="696.031mm" height="68.4389mm"
 xmlns="http://www.w3.org/2000/svg" xmlns:xlink="http://www.w3.org/1999/xlink"  version="1.2" baseProfile="tiny">
<title>Qt SVG Document</title>
<desc>Generated with Qt</desc>
<defs>
</defs>
<g fill="none" stroke="black" stroke-width="1" fill-rule="evenodd" stroke-linecap="square" stroke-linejoin="bevel" >

<g fill="none" stroke="#000000" stroke-opacity="1" stroke-width="1" stroke-linecap="square" stroke-linejoin="bevel" transform="matrix(1,0,0,1,0,0)"
font-family="Ubuntu" font-size="11" font-weight="400" font-style="normal" 
>
</g>

<g fill="none" stroke="#000000" stroke-opacity="1" stroke-width="1" stroke-linecap="square" stroke-linejoin="bevel" transform="matrix(1,0,0,1,0,0)"
font-family="Ubuntu" font-size="11" font-weight="400" font-style="normal" 
>
</g>

<g fill="none" stroke="#000000" stroke-opacity="1" stroke-width="1" stroke-linecap="square" stroke-linejoin="bevel" transform="matrix(2,0,0,2,0.0032,194)"
font-family="Ubuntu" font-size="11" font-weight="400" font-style="normal" 
>
</g>

<g fill="#ffffff" fill-opacity="1" stroke="none" transform="matrix(2,0,0,2,0.0032,194)"
font-family="Ubuntu" font-size="11" font-weight="400" font-style="normal" 
>
<rect x="-0.0016" y="-97" width="986.436" height="97"/>
</g>

<g fill="none" stroke="#000000" stroke-opacity="1" stroke-width="1" stroke-linecap="square" stroke-linejoin="bevel" transform="matrix(2,0,0,2,0.0032,194)"
font-family="Ubuntu" font-size="11" font-weight="400" font-style="normal" 
>
</g>

<g fill="none" stroke="#000000" stroke-opacity="1" stroke-width="1" stroke-linecap="square" stroke-linejoin="bevel" transform="matrix(2,0,0,2,0.0032,194)"
font-family="Ubuntu" font-size="11" font-weight="400" font-style="normal" 
>
</g>

<g fill="none" stroke="#000000" stroke-opacity="1" stroke-width="1" stroke-linecap="square" stroke-linejoin="bevel" transform="matrix(2,0,0,2,0.0032,194)"
font-family="Ubuntu" font-size="11" font-weight="400" font-style="normal" 
>
</g>

<g fill="none" stroke="#000000" stroke-opacity="1" stroke-width="1" stroke-linecap="square" stroke-linejoin="bevel" transform="matrix(2,0,0,2,0.0032,194)"
font-family="Ubuntu" font-size="11" font-weight="400" font-style="normal" 
>
</g>

<g fill="none" stroke="#000000" stroke-opacity="1" stroke-width="1" stroke-linecap="square" stroke-linejoin="round" transform="matrix(2,0,0,2,0.0032,194)"
font-family="Ubuntu" font-size="11" font-weight="400" font-style="normal" 
>
<ellipse cx="335.07" cy="-32" rx="111.291" ry="17.5"/>
</g>

<g fill="none" stroke="#000000" stroke-opacity="1" stroke-width="1" stroke-linecap="square" stroke-linejoin="bevel" transform="matrix(2,0,0,2,0.0032,194)"
font-family="Ubuntu" font-size="11" font-weight="400" font-style="normal" 
>
</g>

<g fill="none" stroke="#000000" stroke-opacity="1" stroke-width="1" stroke-linecap="square" stroke-linejoin="bevel" transform="matrix(2,0,0,2,548.846,116)"
font-family="Ubuntu" font-size="11" font-weight="400" font-style="normal" 
>
</g>

<g fill="none" stroke="#000000" stroke-opacity="1" stroke-width="1" stroke-linecap="square" stroke-linejoin="bevel" transform="matrix(2,0,0,2,548.846,116)"
font-family="sans" font-size="11" font-weight="100" font-style="normal" 
>
</g>

<g fill="#000000" fill-opacity="1" stroke="#000000" stroke-opacity="1" stroke-width="1" stroke-linecap="square" stroke-linejoin="round" transform="matrix(2,0,0,2,548.846,116)"
font-family="sans" font-size="11" font-weight="100" font-style="normal" 
>
<path vector-effect="none" fill-rule="nonzero" d="M2.79688,2.98438 L3.70313,2.98438 L0.90625,12.0156 L0,12.0156 L2.79688,2.98438 M9.89063,7.75 L9.89063,8.23438 L5.34375,8.23438 C5.38542,8.91146 5.58854,9.42708 5.95313,9.78125 C6.31771,10.1354 6.82813,10.3125 7.48438,10.3125 C7.86979,10.3125 8.23958,10.2656 8.59375,10.1719 C8.94792,10.0781 9.30208,9.94271 9.65625,9.76563 L9.65625,10.6875 C9.30208,10.8438 8.9375,10.9609 8.5625,11.0391 C8.1875,11.1172 7.8125,11.1563 7.4375,11.1563 C6.46875,11.1563 5.70573,10.8776 5.14844,10.3203 C4.59115,9.76302 4.3125,9.00521 4.3125,8.04688 C4.3125,7.06771 4.57813,6.28906 5.10938,5.71094 C5.64063,5.13281 6.35938,4.84375 7.26563,4.84375 C8.06771,4.84375 8.70573,5.10417 9.17969,5.625 C9.65365,6.14583 9.89063,6.85417 9.89063,7.75 M8.89063,7.45313 C8.89063,6.91146 8.74219,6.47917 8.44531,6.15625 C8.14844,5.83333 7.75521,5.67188 7.26563,5.67188 C6.71354,5.67188 6.27344,5.82813 5.94531,6.14063 C5.61719,6.45313 5.42708,6.89063 5.375,7.45313 L8.89063,7.45313 M11.4688,2.64063 L12.4688,2.64063 L12.4688,7.57813 L15.4063,4.98438 L16.6719,4.98438 L13.4844,7.79688 L16.8125,11 L15.5156,11 L12.4688,8.0625 L12.4688,11 L11.4688,11 L11.4688,2.64063 M20.9063,2.64063 L20.9063,3.46875 L19.9688,3.46875 C19.6146,3.46875 19.3672,3.53906 19.2266,3.67969 C19.0859,3.82031 19.0156,4.07813 19.0156,4.45313 L19.0156,4.98438 L20.6406,4.98438 L20.6406,5.75 L19.0156,5.75 L19.0156,11 L18.0313,11 L18.0313,5.75 L17.0781,5.75 L17.0781,4.98438 L18.0313,4.98438 L18.0313,4.5625 C18.0313,3.89583 18.1849,3.40885 18.4922,3.10156 C18.7995,2.79427 19.2917,2.64063 19.9688,2.64063 L20.9063,2.64063 M26.2969,12.8281 L26.2969,13.5938 L20.5781,13.5938 L20.5781,12.8281 L26.2969,12.8281 M27.2188,2.64063 L28.2188,2.64063 L28.2188,11 L27.2188,11 L27.2188,2.64063 M32.6094,5.67188 C32.0781,5.67188 31.6589,5.88021 31.3516,6.29688 C31.0443,6.71354 30.8906,7.28125 30.8906,8 C30.8906,8.71875 31.0417,9.28385 31.3438,9.69531 C31.6458,10.1068 32.0677,10.3125 32.6094,10.3125 C33.1302,10.3125 33.5443,10.1068 33.8516,9.69531 C34.1589,9.28385 34.3125,8.71875 34.3125,8 C34.3125,7.28125 34.1589,6.71354 33.8516,6.29688 C33.5443,5.88021 33.1302,5.67188 32.6094,5.67188 M32.6094,4.84375 C33.4635,4.84375 34.1354,5.1224 34.625,5.67969 C35.1146,6.23698 35.3594,7.01042 35.3594,8 C35.3594,8.97917 35.1146,9.75 34.625,10.3125 C34.1354,10.875 33.4635,11.1563 32.6094,11.1563 C31.7448,11.1563 31.0677,10.875 30.5781,10.3125 C30.0885,9.75 29.8438,8.97917 29.8438,8 C29.8438,7.01042 30.0885,6.23698 30.5781,5.67969 C31.0677,5.1224 31.7448,4.84375 32.6094,4.84375 M41.3125,5.21875 L41.3125,6.14063 C41.0417,5.98438 40.7656,5.86719 40.4844,5.78906 C40.2031,5.71094 39.9167,5.67188 39.625,5.67188 C38.9896,5.67188 38.4948,5.875 38.1406,6.28125 C37.7865,6.6875 37.6094,7.26042 37.6094,8 C37.6094,8.72917 37.7865,9.29688 38.1406,9.70313 C38.4948,10.1094 38.9896,10.3125 39.625,10.3125 C39.9167,10.3125 40.2031,10.276 40.4844,10.2031 C40.7656,10.1302 41.0417,10.0156 41.3125,9.85938 L41.3125,10.7656 C41.0417,10.901 40.7578,11 40.4609,11.0625 C40.1641,11.125 39.849,11.1563 39.5156,11.1563 C38.6094,11.1563 37.8906,10.8724 37.3594,10.3047 C36.8281,9.73698 36.5625,8.96875 36.5625,8 C36.5625,7.02083 36.8307,6.25 37.3672,5.6875 C37.9036,5.125 38.6406,4.84375 39.5781,4.84375 C39.8906,4.84375 40.1901,4.875 40.4766,4.9375 C40.763,5 41.0417,5.09375 41.3125,5.21875 M45.7656,7.96875 C44.974,7.96875 44.4245,8.0625 44.1172,8.25 C43.8099,8.4375 43.6563,8.75 43.6563,9.1875 C43.6563,9.53125 43.7708,9.80729 44,10.0156 C44.2292,10.224 44.5417,10.3281 44.9375,10.3281 C45.4896,10.3281 45.9297,10.1328 46.2578,9.74219 C46.5859,9.35156 46.75,8.83854 46.75,8.20313 L46.75,7.96875 L45.7656,7.96875 M47.7344,7.5625 L47.7344,11 L46.75,11 L46.75,10.0938 C46.5313,10.4583 46.2526,10.7266 45.9141,10.8984 C45.5755,11.0703 45.1615,11.1563 44.6719,11.1563 C44.0573,11.1563 43.5677,10.9844 43.2031,10.6406 C42.8385,10.2969 42.6563,9.83333 42.6563,9.25 C42.6563,8.57292 42.8828,8.0625 43.3359,7.71875 C43.7891,7.375 44.4688,7.20313 45.375,7.20313 L46.75,7.20313 L46.75,7.10938 C46.75,6.65104 46.6016,6.29688 46.3047,6.04688 C46.0078,5.79688 45.5885,5.67188 45.0469,5.67188 C44.7031,5.67188 44.3672,5.71354 44.0391,5.79688 C43.7109,5.88021 43.3958,6.00521 43.0938,6.17188 L43.0938,5.26563 C43.4583,5.11979 43.8125,5.01302 44.1563,4.94531 C44.5,4.8776 44.8281,4.84375 45.1406,4.84375 C46.0156,4.84375 46.6667,5.06771 47.0938,5.51563 C47.5208,5.96354 47.7344,6.64583 47.7344,7.5625 M49.7656,2.64063 L50.7656,2.64063 L50.7656,11 L49.7656,11 L49.7656,2.64063 M52.8125,4.98438 L53.8125,4.98438 L53.8125,11 L52.8125,11 L52.8125,4.98438 M52.8125,2.64063 L53.8125,2.64063 L53.8125,3.89063 L52.8125,3.89063 L52.8125,2.64063 M55.4375,4.98438 L60.125,4.98438 L60.125,5.89063 L56.4063,10.2031 L60.125,10.2031 L60.125,11 L55.2969,11 L55.2969,10.0938 L59.0156,5.78125 L55.4375,5.78125 L55.4375,4.98438 M64.3594,7.96875 C63.5677,7.96875 63.0182,8.0625 62.7109,8.25 C62.4036,8.4375 62.25,8.75 62.25,9.1875 C62.25,9.53125 62.3646,9.80729 62.5938,10.0156 C62.8229,10.224 63.1354,10.3281 63.5313,10.3281 C64.0833,10.3281 64.5234,10.1328 64.8516,9.74219 C65.1797,9.35156 65.3438,8.83854 65.3438,8.20313 L65.3438,7.96875 L64.3594,7.96875 M66.3281,7.5625 L66.3281,11 L65.3438,11 L65.3438,10.0938 C65.125,10.4583 64.8464,10.7266 64.5078,10.8984 C64.1693,11.0703 63.7552,11.1563 63.2656,11.1563 C62.651,11.1563 62.1615,10.9844 61.7969,10.6406 C61.4323,10.2969 61.25,9.83333 61.25,9.25 C61.25,8.57292 61.4766,8.0625 61.9297,7.71875 C62.3828,7.375 63.0625,7.20313 63.9688,7.20313 L65.3438,7.20313 L65.3438,7.10938 C65.3438,6.65104 65.1953,6.29688 64.8984,6.04688 C64.6016,5.79688 64.1823,5.67188 63.6406,5.67188 C63.2969,5.67188 62.9609,5.71354 62.6328,5.79688 C62.3047,5.88021 61.9896,6.00521 61.6875,6.17188 L61.6875,5.26563 C62.0521,5.11979 62.4063,5.01302 62.75,4.94531 C63.0938,4.8776 63.4219,4.84375 63.7344,4.84375 C64.6094,4.84375 65.2604,5.06771 65.6875,5.51563 C66.1146,5.96354 66.3281,6.64583 66.3281,7.5625 M69.3438,3.28125 L69.3438,4.98438 L71.375,4.98438 L71.375,5.75 L69.3438,5.75 L69.3438,9.01563 C69.3438,9.50521 69.4115,9.82031 69.5469,9.96094 C69.6823,10.1016 69.9531,10.1719 70.3594,10.1719 L71.375,10.1719 L71.375,11 L70.3594,11 C69.599,11 69.0729,10.8568 68.7813,10.5703 C68.4896,10.2839 68.3438,9.76563 68.3438,9.01563 L68.3438,5.75 L67.625,5.75 L67.625,4.98438 L68.3438,4.98438 L68.3438,3.28125 L69.3438,3.28125 M72.6719,4.98438 L73.6719,4.98438 L73.6719,11 L72.6719,11 L72.6719,4.98438 M72.6719,2.64063 L73.6719,2.64063 L73.6719,3.89063 L72.6719,3.89063 L72.6719,2.64063 M78.0625,5.67188 C77.5313,5.67188 77.112,5.88021 76.8047,6.29688 C76.4974,6.71354 76.3438,7.28125 76.3438,8 C76.3438,8.71875 76.4948,9.28385 76.7969,9.69531 C77.099,10.1068 77.5208,10.3125 78.0625,10.3125 C78.5833,10.3125 78.9974,10.1068 79.3047,9.69531 C79.612,9.28385 79.7656,8.71875 79.7656,8 C79.7656,7.28125 79.612,6.71354 79.3047,6.29688 C78.9974,5.88021 78.5833,5.67188 78.0625,5.67188 M78.0625,4.84375 C78.9167,4.84375 79.5885,5.1224 80.0781,5.67969 C80.5677,6.23698 80.8125,7.01042 80.8125,8 C80.8125,8.97917 80.5677,9.75 80.0781,10.3125 C79.5885,10.875 78.9167,11.1563 78.0625,11.1563 C77.1979,11.1563 76.5208,10.875 76.0313,10.3125 C75.5417,9.75 75.2969,8.97917 75.2969,8 C75.2969,7.01042 75.5417,6.23698 76.0313,5.67969 C76.5208,5.1224 77.1979,4.84375 78.0625,4.84375 M87.4375,7.375 L87.4375,11 L86.4531,11 L86.4531,7.40625 C86.4531,6.83333 86.3438,6.40625 86.125,6.125 C85.9063,5.84375 85.5729,5.70313 85.125,5.70313 C84.5938,5.70313 84.1745,5.8724 83.8672,6.21094 C83.5599,6.54948 83.4063,7.01042 83.4063,7.59375 L83.4063,11 L82.4063,11 L82.4063,4.98438 L83.4063,4.98438 L83.4063,5.92188 C83.6354,5.55729 83.9115,5.28646 84.2344,5.10938 C84.5573,4.93229 84.9271,4.84375 85.3438,4.84375 C86.0313,4.84375 86.5521,5.05729 86.9063,5.48438 C87.2604,5.91146 87.4375,6.54167 87.4375,7.375 M93.9844,12.8281 L93.9844,13.5938 L88.2656,13.5938 L88.2656,12.8281 L93.9844,12.8281 M99.9063,7.375 L99.9063,11 L98.9219,11 L98.9219,7.40625 C98.9219,6.83333 98.8125,6.40625 98.5938,6.125 C98.375,5.84375 98.0417,5.70313 97.5938,5.70313 C97.0625,5.70313 96.6432,5.8724 96.3359,6.21094 C96.0286,6.54948 95.875,7.01042 95.875,7.59375 L95.875,11 L94.875,11 L94.875,4.98438 L95.875,4.98438 L95.875,5.92188 C96.1042,5.55729 96.3802,5.28646 96.7031,5.10938 C97.026,4.93229 97.3958,4.84375 97.8125,4.84375 C98.5,4.84375 99.0208,5.05729 99.375,5.48438 C99.7292,5.91146 99.9063,6.54167 99.9063,7.375 M104.219,5.67188 C103.688,5.67188 103.268,5.88021 102.961,6.29688 C102.654,6.71354 102.5,7.28125 102.5,8 C102.5,8.71875 102.651,9.28385 102.953,9.69531 C103.255,10.1068 103.677,10.3125 104.219,10.3125 C104.74,10.3125 105.154,10.1068 105.461,9.69531 C105.768,9.28385 105.922,8.71875 105.922,8 C105.922,7.28125 105.768,6.71354 105.461,6.29688 C105.154,5.88021 104.74,5.67188 104.219,5.67188 M104.219,4.84375 C105.073,4.84375 105.745,5.1224 106.234,5.67969 C106.724,6.23698 106.969,7.01042 106.969,8 C106.969,8.97917 106.724,9.75 106.234,10.3125 C105.745,10.875 105.073,11.1563 104.219,11.1563 C103.354,11.1563 102.677,10.875 102.188,10.3125 C101.698,9.75 101.453,8.97917 101.453,8 C101.453,7.01042 101.698,6.23698 102.188,5.67969 C102.677,5.1224 103.354,4.84375 104.219,4.84375 M112.563,5.89063 L112.563,2.64063 L113.547,2.64063 L113.547,11 L112.563,11 L112.563,10.0938 C112.354,10.4583 112.091,10.7266 111.773,10.8984 C111.456,11.0703 111.073,11.1563 110.625,11.1563 C109.906,11.1563 109.318,10.8672 108.859,10.2891 C108.401,9.71094 108.172,8.94792 108.172,8 C108.172,7.05208 108.401,6.28906 108.859,5.71094 C109.318,5.13281 109.906,4.84375 110.625,4.84375 C111.073,4.84375 111.456,4.92969 111.773,5.10156 C112.091,5.27344 112.354,5.53646 112.563,5.89063 M109.188,8 C109.188,8.72917 109.339,9.29948 109.641,9.71094 C109.943,10.1224 110.354,10.3281 110.875,10.3281 C111.396,10.3281 111.807,10.1224 112.109,9.71094 C112.411,9.29948 112.563,8.72917 112.563,8 C112.563,7.27083 112.411,6.70052 112.109,6.28906 C111.807,5.8776 111.396,5.67188 110.875,5.67188 C110.354,5.67188 109.943,5.8776 109.641,6.28906 C109.339,6.70052 109.188,7.27083 109.188,8 M120.719,7.75 L120.719,8.23438 L116.172,8.23438 C116.214,8.91146 116.417,9.42708 116.781,9.78125 C117.146,10.1354 117.656,10.3125 118.313,10.3125 C118.698,10.3125 119.068,10.2656 119.422,10.1719 C119.776,10.0781 120.13,9.94271 120.484,9.76563 L120.484,10.6875 C120.13,10.8438 119.766,10.9609 119.391,11.0391 C119.016,11.1172 118.641,11.1563 118.266,11.1563 C117.297,11.1563 116.534,10.8776 115.977,10.3203 C115.419,9.76302 115.141,9.00521 115.141,8.04688 C115.141,7.06771 115.406,6.28906 115.938,5.71094 C116.469,5.13281 117.188,4.84375 118.094,4.84375 C118.896,4.84375 119.534,5.10417 120.008,5.625 C120.482,6.14583 120.719,6.85417 120.719,7.75 M119.719,7.45313 C119.719,6.91146 119.57,6.47917 119.273,6.15625 C118.977,5.83333 118.583,5.67188 118.094,5.67188 C117.542,5.67188 117.102,5.82813 116.773,6.14063 C116.445,6.45313 116.255,6.89063 116.203,7.45313 L119.719,7.45313"/>
</g>

<g fill="none" stroke="#000000" stroke-opacity="1" stroke-width="1" stroke-linecap="square" stroke-linejoin="bevel" transform="matrix(2,0,0,2,548.846,116)"
font-family="sans" font-size="11" font-weight="100" font-style="normal" 
>
</g>

<g fill="none" stroke="#000000" stroke-opacity="1" stroke-width="1" stroke-linecap="square" stroke-linejoin="bevel" transform="matrix(2,0,0,2,548.846,116)"
font-family="Ubuntu" font-size="11" font-weight="400" font-style="normal" 
>
</g>

<g fill="none" stroke="#000000" stroke-opacity="1" stroke-width="1" stroke-linecap="square" stroke-linejoin="bevel" transform="matrix(2,0,0,2,0.0032,194)"
font-family="Ubuntu" font-size="11" font-weight="400" font-style="normal" 
>
</g>

<g fill="none" stroke="#000000" stroke-opacity="1" stroke-width="1" stroke-linecap="square" stroke-linejoin="bevel" transform="matrix(2,0,0,2,0.0032,194)"
font-family="Ubuntu" font-size="11" font-weight="400" font-style="normal" 
>
</g>

<g fill="none" stroke="#000000" stroke-opacity="1" stroke-width="1" stroke-linecap="square" stroke-linejoin="bevel" transform="matrix(2,0,0,2,0.0032,194)"
font-family="Ubuntu" font-size="11" font-weight="400" font-style="normal" 
>
</g>

<g fill="none" stroke="#000000" stroke-opacity="1" stroke-width="1" stroke-linecap="square" stroke-linejoin="round" transform="matrix(2,0,0,2,0.0032,194)"
font-family="Ubuntu" font-size="11" font-weight="400" font-style="normal" 
>
<ellipse cx="683.86" cy="-59" rx="90.4936" ry="17.5"/>
</g>

<g fill="none" stroke="#000000" stroke-opacity="1" stroke-width="1" stroke-linecap="square" stroke-linejoin="bevel" transform="matrix(2,0,0,2,0.0032,194)"
font-family="Ubuntu" font-size="11" font-weight="400" font-style="normal" 
>
</g>

<g fill="none" stroke="#000000" stroke-opacity="1" stroke-width="1" stroke-linecap="square" stroke-linejoin="bevel" transform="matrix(2,0,0,2,1270.35,62)"
font-family="Ubuntu" font-size="11" font-weight="400" font-style="normal" 
>
</g>

<g fill="none" stroke="#000000" stroke-opacity="1" stroke-width="1" stroke-linecap="square" stroke-linejoin="bevel" transform="matrix(2,0,0,2,1270.35,62)"
font-family="sans" font-size="11" font-weight="100" font-style="normal" 
>
</g>

<g fill="#000000" fill-opacity="1" stroke="#000000" stroke-opacity="1" stroke-width="1" stroke-linecap="square" stroke-linejoin="round" transform="matrix(2,0,0,2,1270.35,62)"
font-family="sans" font-size="11" font-weight="100" font-style="normal" 
>
<path vector-effect="none" fill-rule="nonzero" d="M2.79688,2.98438 L3.70313,2.98438 L0.90625,12.0156 L0,12.0156 L2.79688,2.98438 M9.73438,7.375 L9.73438,11 L8.75,11 L8.75,7.40625 C8.75,6.83333 8.64063,6.40625 8.42188,6.125 C8.20313,5.84375 7.86979,5.70313 7.42188,5.70313 C6.89063,5.70313 6.47135,5.8724 6.16406,6.21094 C5.85677,6.54948 5.70313,7.01042 5.70313,7.59375 L5.70313,11 L4.70313,11 L4.70313,4.98438 L5.70313,4.98438 L5.70313,5.92188 C5.93229,5.55729 6.20833,5.28646 6.53125,5.10938 C6.85417,4.93229 7.22396,4.84375 7.64063,4.84375 C8.32813,4.84375 8.84896,5.05729 9.20313,5.48438 C9.55729,5.91146 9.73438,6.54167 9.73438,7.375 M14.4375,7.96875 C13.6458,7.96875 13.0964,8.0625 12.7891,8.25 C12.4818,8.4375 12.3281,8.75 12.3281,9.1875 C12.3281,9.53125 12.4427,9.80729 12.6719,10.0156 C12.901,10.224 13.2135,10.3281 13.6094,10.3281 C14.1615,10.3281 14.6016,10.1328 14.9297,9.74219 C15.2578,9.35156 15.4219,8.83854 15.4219,8.20313 L15.4219,7.96875 L14.4375,7.96875 M16.4063,7.5625 L16.4063,11 L15.4219,11 L15.4219,10.0938 C15.2031,10.4583 14.9245,10.7266 14.5859,10.8984 C14.2474,11.0703 13.8333,11.1563 13.3438,11.1563 C12.7292,11.1563 12.2396,10.9844 11.875,10.6406 C11.5104,10.2969 11.3281,9.83333 11.3281,9.25 C11.3281,8.57292 11.5547,8.0625 12.0078,7.71875 C12.4609,7.375 13.1406,7.20313 14.0469,7.20313 L15.4219,7.20313 L15.4219,7.10938 C15.4219,6.65104 15.2734,6.29688 14.9766,6.04688 C14.6797,5.79688 14.2604,5.67188 13.7188,5.67188 C13.375,5.67188 13.0391,5.71354 12.7109,5.79688 C12.3828,5.88021 12.0677,6.00521 11.7656,6.17188 L11.7656,5.26563 C12.1302,5.11979 12.4844,5.01302 12.8281,4.94531 C13.1719,4.8776 13.5,4.84375 13.8125,4.84375 C14.6875,4.84375 15.3385,5.06771 15.7656,5.51563 C16.1927,5.96354 16.4063,6.64583 16.4063,7.5625 M17.7344,4.98438 L18.7813,4.98438 L20.6563,10.0313 L22.5469,4.98438 L23.5938,4.98438 L21.3281,11 L19.9844,11 L17.7344,4.98438 M24.9375,4.98438 L25.9375,4.98438 L25.9375,11 L24.9375,11 L24.9375,4.98438 M24.9375,2.64063 L25.9375,2.64063 L25.9375,3.89063 L24.9375,3.89063 L24.9375,2.64063 M31.9531,7.92188 C31.9531,7.20313 31.8047,6.64844 31.5078,6.25781 C31.2109,5.86719 30.7969,5.67188 30.2656,5.67188 C29.7344,5.67188 29.3203,5.86719 29.0234,6.25781 C28.7266,6.64844 28.5781,7.20313 28.5781,7.92188 C28.5781,8.63021 28.7266,9.18229 29.0234,9.57813 C29.3203,9.97396 29.7344,10.1719 30.2656,10.1719 C30.7969,10.1719 31.2109,9.97396 31.5078,9.57813 C31.8047,9.18229 31.9531,8.63021 31.9531,7.92188 M32.9375,10.25 C32.9375,11.2813 32.7109,12.0443 32.2578,12.5391 C31.8047,13.0339 31.1094,13.2813 30.1719,13.2813 C29.8177,13.2813 29.487,13.2552 29.1797,13.2031 C28.8724,13.151 28.5729,13.0729 28.2813,12.9688 L28.2813,12.0156 C28.5729,12.1719 28.8594,12.2865 29.1406,12.3594 C29.4219,12.4323 29.7135,12.4688 30.0156,12.4688 C30.6615,12.4688 31.1458,12.2995 31.4688,11.9609 C31.7917,11.6224 31.9531,11.1146 31.9531,10.4375 L31.9531,9.9375 C31.7448,10.2917 31.4818,10.5573 31.1641,10.7344 C30.8464,10.9115 30.4635,11 30.0156,11 C29.276,11 28.6823,10.7188 28.2344,10.1563 C27.7865,9.59375 27.5625,8.84896 27.5625,7.92188 C27.5625,6.99479 27.7865,6.25 28.2344,5.6875 C28.6823,5.125 29.276,4.84375 30.0156,4.84375 C30.4635,4.84375 30.8464,4.92969 31.1641,5.10156 C31.4818,5.27344 31.7448,5.53646 31.9531,5.89063 L31.9531,4.98438 L32.9375,4.98438 L32.9375,10.25 M37.6875,7.96875 C36.8958,7.96875 36.3464,8.0625 36.0391,8.25 C35.7318,8.4375 35.5781,8.75 35.5781,9.1875 C35.5781,9.53125 35.6927,9.80729 35.9219,10.0156 C36.151,10.224 36.4635,10.3281 36.8594,10.3281 C37.4115,10.3281 37.8516,10.1328 38.1797,9.74219 C38.5078,9.35156 38.6719,8.83854 38.6719,8.20313 L38.6719,7.96875 L37.6875,7.96875 M39.6563,7.5625 L39.6563,11 L38.6719,11 L38.6719,10.0938 C38.4531,10.4583 38.1745,10.7266 37.8359,10.8984 C37.4974,11.0703 37.0833,11.1563 36.5938,11.1563 C35.9792,11.1563 35.4896,10.9844 35.125,10.6406 C34.7604,10.2969 34.5781,9.83333 34.5781,9.25 C34.5781,8.57292 34.8047,8.0625 35.2578,7.71875 C35.7109,7.375 36.3906,7.20313 37.2969,7.20313 L38.6719,7.20313 L38.6719,7.10938 C38.6719,6.65104 38.5234,6.29688 38.2266,6.04688 C37.9297,5.79688 37.5104,5.67188 36.9688,5.67188 C36.625,5.67188 36.2891,5.71354 35.9609,5.79688 C35.6328,5.88021 35.3177,6.00521 35.0156,6.17188 L35.0156,5.26563 C35.3802,5.11979 35.7344,5.01302 36.0781,4.94531 C36.4219,4.8776 36.75,4.84375 37.0625,4.84375 C37.9375,4.84375 38.5885,5.06771 39.0156,5.51563 C39.4427,5.96354 39.6563,6.64583 39.6563,7.5625 M42.6719,3.28125 L42.6719,4.98438 L44.7031,4.98438 L44.7031,5.75 L42.6719,5.75 L42.6719,9.01563 C42.6719,9.50521 42.7396,9.82031 42.875,9.96094 C43.0104,10.1016 43.2813,10.1719 43.6875,10.1719 L44.7031,10.1719 L44.7031,11 L43.6875,11 C42.9271,11 42.401,10.8568 42.1094,10.5703 C41.8177,10.2839 41.6719,9.76563 41.6719,9.01563 L41.6719,5.75 L40.9531,5.75 L40.9531,4.98438 L41.6719,4.98438 L41.6719,3.28125 L42.6719,3.28125 M46,4.98438 L47,4.98438 L47,11 L46,11 L46,4.98438 M46,2.64063 L47,2.64063 L47,3.89063 L46,3.89063 L46,2.64063 M51.3906,5.67188 C50.8594,5.67188 50.4401,5.88021 50.1328,6.29688 C49.8255,6.71354 49.6719,7.28125 49.6719,8 C49.6719,8.71875 49.8229,9.28385 50.125,9.69531 C50.4271,10.1068 50.849,10.3125 51.3906,10.3125 C51.9115,10.3125 52.3255,10.1068 52.6328,9.69531 C52.9401,9.28385 53.0938,8.71875 53.0938,8 C53.0938,7.28125 52.9401,6.71354 52.6328,6.29688 C52.3255,5.88021 51.9115,5.67188 51.3906,5.67188 M51.3906,4.84375 C52.2448,4.84375 52.9167,5.1224 53.4063,5.67969 C53.8958,6.23698 54.1406,7.01042 54.1406,8 C54.1406,8.97917 53.8958,9.75 53.4063,10.3125 C52.9167,10.875 52.2448,11.1563 51.3906,11.1563 C50.526,11.1563 49.849,10.875 49.3594,10.3125 C48.8698,9.75 48.625,8.97917 48.625,8 C48.625,7.01042 48.8698,6.23698 49.3594,5.67969 C49.849,5.1224 50.526,4.84375 51.3906,4.84375 M60.7656,7.375 L60.7656,11 L59.7813,11 L59.7813,7.40625 C59.7813,6.83333 59.6719,6.40625 59.4531,6.125 C59.2344,5.84375 58.901,5.70313 58.4531,5.70313 C57.9219,5.70313 57.5026,5.8724 57.1953,6.21094 C56.888,6.54948 56.7344,7.01042 56.7344,7.59375 L56.7344,11 L55.7344,11 L55.7344,4.98438 L56.7344,4.98438 L56.7344,5.92188 C56.9635,5.55729 57.2396,5.28646 57.5625,5.10938 C57.8854,4.93229 58.2552,4.84375 58.6719,4.84375 C59.3594,4.84375 59.8802,5.05729 60.2344,5.48438 C60.5885,5.91146 60.7656,6.54167 60.7656,7.375 M67.3125,12.8281 L67.3125,13.5938 L61.5938,13.5938 L61.5938,12.8281 L67.3125,12.8281 M72.0781,5.15625 L72.0781,6.09375 C71.7969,5.94792 71.5052,5.84115 71.2031,5.77344 C70.901,5.70573 70.5885,5.67188 70.2656,5.67188 C69.776,5.67188 69.4089,5.7474 69.1641,5.89844 C68.9193,6.04948 68.7969,6.27083 68.7969,6.5625 C68.7969,6.79167 68.8854,6.97135 69.0625,7.10156 C69.2396,7.23177 69.5938,7.35938 70.125,7.48438 L70.4531,7.5625 C71.1615,7.70833 71.6615,7.91927 71.9531,8.19531 C72.2448,8.47135 72.3906,8.85417 72.3906,9.34375 C72.3906,9.89583 72.1719,10.3359 71.7344,10.6641 C71.2969,10.9922 70.6875,11.1563 69.9063,11.1563 C69.5833,11.1563 69.2474,11.125 68.8984,11.0625 C68.5495,11 68.1823,10.9063 67.7969,10.7813 L67.7969,9.76563 C68.1615,9.95313 68.5208,10.0938 68.875,10.1875 C69.2292,10.2813 69.5833,10.3281 69.9375,10.3281 C70.3958,10.3281 70.75,10.2474 71,10.0859 C71.25,9.92448 71.375,9.70313 71.375,9.42188 C71.375,9.15104 71.2865,8.94271 71.1094,8.79688 C70.9323,8.65104 70.5365,8.51563 69.9219,8.39063 L69.5781,8.29688 C68.9635,8.17188 68.5208,7.97656 68.25,7.71094 C67.9792,7.44531 67.8438,7.07813 67.8438,6.60938 C67.8438,6.04688 68.0443,5.61198 68.4453,5.30469 C68.8464,4.9974 69.4167,4.84375 70.1563,4.84375 C70.5208,4.84375 70.8646,4.86979 71.1875,4.92188 C71.5104,4.97396 71.8073,5.05208 72.0781,5.15625 M74.9375,3.28125 L74.9375,4.98438 L76.9688,4.98438 L76.9688,5.75 L74.9375,5.75 L74.9375,9.01563 C74.9375,9.50521 75.0052,9.82031 75.1406,9.96094 C75.276,10.1016 75.5469,10.1719 75.9531,10.1719 L76.9688,10.1719 L76.9688,11 L75.9531,11 C75.1927,11 74.6667,10.8568 74.375,10.5703 C74.0833,10.2839 73.9375,9.76563 73.9375,9.01563 L73.9375,5.75 L73.2188,5.75 L73.2188,4.98438 L73.9375,4.98438 L73.9375,3.28125 L74.9375,3.28125 M81,7.96875 C80.2083,7.96875 79.6589,8.0625 79.3516,8.25 C79.0443,8.4375 78.8906,8.75 78.8906,9.1875 C78.8906,9.53125 79.0052,9.80729 79.2344,10.0156 C79.4635,10.224 79.776,10.3281 80.1719,10.3281 C80.724,10.3281 81.1641,10.1328 81.4922,9.74219 C81.8203,9.35156 81.9844,8.83854 81.9844,8.20313 L81.9844,7.96875 L81,7.96875 M82.9688,7.5625 L82.9688,11 L81.9844,11 L81.9844,10.0938 C81.7656,10.4583 81.487,10.7266 81.1484,10.8984 C80.8099,11.0703 80.3958,11.1563 79.9063,11.1563 C79.2917,11.1563 78.8021,10.9844 78.4375,10.6406 C78.0729,10.2969 77.8906,9.83333 77.8906,9.25 C77.8906,8.57292 78.1172,8.0625 78.5703,7.71875 C79.0234,7.375 79.7031,7.20313 80.6094,7.20313 L81.9844,7.20313 L81.9844,7.10938 C81.9844,6.65104 81.8359,6.29688 81.5391,6.04688 C81.2422,5.79688 80.8229,5.67188 80.2813,5.67188 C79.9375,5.67188 79.6016,5.71354 79.2734,5.79688 C78.9453,5.88021 78.6302,6.00521 78.3281,6.17188 L78.3281,5.26563 C78.6927,5.11979 79.0469,5.01302 79.3906,4.94531 C79.7344,4.8776 80.0625,4.84375 80.375,4.84375 C81.25,4.84375 81.901,5.06771 82.3281,5.51563 C82.7552,5.96354 82.9688,6.64583 82.9688,7.5625 M89.3281,5.21875 L89.3281,6.14063 C89.0573,5.98438 88.7813,5.86719 88.5,5.78906 C88.2188,5.71094 87.9323,5.67188 87.6406,5.67188 C87.0052,5.67188 86.5104,5.875 86.1563,6.28125 C85.8021,6.6875 85.625,7.26042 85.625,8 C85.625,8.72917 85.8021,9.29688 86.1563,9.70313 C86.5104,10.1094 87.0052,10.3125 87.6406,10.3125 C87.9323,10.3125 88.2188,10.276 88.5,10.2031 C88.7813,10.1302 89.0573,10.0156 89.3281,9.85938 L89.3281,10.7656 C89.0573,10.901 88.7734,11 88.4766,11.0625 C88.1797,11.125 87.8646,11.1563 87.5313,11.1563 C86.625,11.1563 85.9063,10.8724 85.375,10.3047 C84.8438,9.73698 84.5781,8.96875 84.5781,8 C84.5781,7.02083 84.8464,6.25 85.3828,5.6875 C85.9193,5.125 86.6563,4.84375 87.5938,4.84375 C87.9063,4.84375 88.2057,4.875 88.4922,4.9375 C88.7786,5 89.0573,5.09375 89.3281,5.21875 M91.0156,2.64063 L92.0156,2.64063 L92.0156,7.57813 L94.9531,4.98438 L96.2188,4.98438 L93.0313,7.79688 L96.3594,11 L95.0625,11 L92.0156,8.0625 L92.0156,11 L91.0156,11 L91.0156,2.64063"/>
</g>

<g fill="none" stroke="#000000" stroke-opacity="1" stroke-width="1" stroke-linecap="square" stroke-linejoin="bevel" transform="matrix(2,0,0,2,1270.35,62)"
font-family="sans" font-size="11" font-weight="100" font-style="normal" 
>
</g>

<g fill="none" stroke="#000000" stroke-opacity="1" stroke-width="1" stroke-linecap="square" stroke-linejoin="bevel" transform="matrix(2,0,0,2,1270.35,62)"
font-family="Ubuntu" font-size="11" font-weight="400" font-style="normal" 
>
</g>

<g fill="none" stroke="#000000" stroke-opacity="1" stroke-width="1" stroke-linecap="square" stroke-linejoin="bevel" transform="matrix(2,0,0,2,0.0032,194)"
font-family="Ubuntu" font-size="11" font-weight="400" font-style="normal" 
>
</g>

<g fill="none" stroke="#000000" stroke-opacity="1" stroke-width="1" stroke-linecap="square" stroke-linejoin="bevel" transform="matrix(2,0,0,2,0.0032,194)"
font-family="Ubuntu" font-size="11" font-weight="400" font-style="normal" 
>
</g>

<g fill="none" stroke="#000000" stroke-opacity="1" stroke-width="1" stroke-linecap="square" stroke-linejoin="bevel" transform="matrix(2,0,0,2,0.0032,194)"
font-family="Ubuntu" font-size="11" font-weight="400" font-style="normal" 
>
</g>

<g fill="none" stroke="#000000" stroke-opacity="1" stroke-width="1" stroke-linecap="square" stroke-linejoin="round" transform="matrix(2,0,0,2,0.0032,194)"
font-family="Ubuntu" font-size="11" font-weight="400" font-style="normal" 
>
<ellipse cx="85.142" cy="-18" rx="84.6436" ry="17.5"/>
</g>

<g fill="none" stroke="#000000" stroke-opacity="1" stroke-width="1" stroke-linecap="square" stroke-linejoin="bevel" transform="matrix(2,0,0,2,0.0032,194)"
font-family="Ubuntu" font-size="11" font-weight="400" font-style="normal" 
>
</g>

<g fill="none" stroke="#000000" stroke-opacity="1" stroke-width="1" stroke-linecap="square" stroke-linejoin="bevel" transform="matrix(2,0,0,2,81.0841,144)"
font-family="Ubuntu" font-size="11" font-weight="400" font-style="normal" 
>
</g>

<g fill="none" stroke="#000000" stroke-opacity="1" stroke-width="1" stroke-linecap="square" stroke-linejoin="bevel" transform="matrix(2,0,0,2,81.0841,144)"
font-family="sans" font-size="11" font-weight="100" font-style="normal" 
>
</g>

<g fill="#000000" fill-opacity="1" stroke="#000000" stroke-opacity="1" stroke-width="1" stroke-linecap="square" stroke-linejoin="round" transform="matrix(2,0,0,2,81.0841,144)"
font-family="sans" font-size="11" font-weight="100" font-style="normal" 
>
<path vector-effect="none" fill-rule="nonzero" d="M2.79688,2.98438 L3.70313,2.98438 L0.90625,12.0156 L0,12.0156 L2.79688,2.98438 M8.21875,5.90625 C8.11458,5.84375 7.9974,5.79688 7.86719,5.76563 C7.73698,5.73438 7.59375,5.71875 7.4375,5.71875 C6.875,5.71875 6.44531,5.90104 6.14844,6.26563 C5.85156,6.63021 5.70313,7.15104 5.70313,7.82813 L5.70313,11 L4.70313,11 L4.70313,4.98438 L5.70313,4.98438 L5.70313,5.92188 C5.90104,5.55729 6.16667,5.28646 6.5,5.10938 C6.83333,4.93229 7.23958,4.84375 7.71875,4.84375 C7.79167,4.84375 7.86719,4.84635 7.94531,4.85156 C8.02344,4.85677 8.11458,4.86979 8.21875,4.89063 L8.21875,5.90625 M11.9844,7.96875 C11.1927,7.96875 10.6432,8.0625 10.3359,8.25 C10.0286,8.4375 9.875,8.75 9.875,9.1875 C9.875,9.53125 9.98958,9.80729 10.2188,10.0156 C10.4479,10.224 10.7604,10.3281 11.1563,10.3281 C11.7083,10.3281 12.1484,10.1328 12.4766,9.74219 C12.8047,9.35156 12.9688,8.83854 12.9688,8.20313 L12.9688,7.96875 L11.9844,7.96875 M13.9531,7.5625 L13.9531,11 L12.9688,11 L12.9688,10.0938 C12.75,10.4583 12.4714,10.7266 12.1328,10.8984 C11.7943,11.0703 11.3802,11.1563 10.8906,11.1563 C10.276,11.1563 9.78646,10.9844 9.42188,10.6406 C9.05729,10.2969 8.875,9.83333 8.875,9.25 C8.875,8.57292 9.10156,8.0625 9.55469,7.71875 C10.0078,7.375 10.6875,7.20313 11.5938,7.20313 L12.9688,7.20313 L12.9688,7.10938 C12.9688,6.65104 12.8203,6.29688 12.5234,6.04688 C12.2266,5.79688 11.8073,5.67188 11.2656,5.67188 C10.9219,5.67188 10.5859,5.71354 10.2578,5.79688 C9.92969,5.88021 9.61458,6.00521 9.3125,6.17188 L9.3125,5.26563 C9.67708,5.11979 10.0313,5.01302 10.375,4.94531 C10.7188,4.8776 11.0469,4.84375 11.3594,4.84375 C12.2344,4.84375 12.8854,5.06771 13.3125,5.51563 C13.7396,5.96354 13.9531,6.64583 13.9531,7.5625 M15.5625,4.98438 L20.25,4.98438 L20.25,5.89063 L16.5313,10.2031 L20.25,10.2031 L20.25,11 L15.4219,11 L15.4219,10.0938 L19.1406,5.78125 L15.5625,5.78125 L15.5625,4.98438 M24.0938,5.67188 C23.5625,5.67188 23.1432,5.88021 22.8359,6.29688 C22.5286,6.71354 22.375,7.28125 22.375,8 C22.375,8.71875 22.526,9.28385 22.8281,9.69531 C23.1302,10.1068 23.5521,10.3125 24.0938,10.3125 C24.6146,10.3125 25.0286,10.1068 25.3359,9.69531 C25.6432,9.28385 25.7969,8.71875 25.7969,8 C25.7969,7.28125 25.6432,6.71354 25.3359,6.29688 C25.0286,5.88021 24.6146,5.67188 24.0938,5.67188 M24.0938,4.84375 C24.9479,4.84375 25.6198,5.1224 26.1094,5.67969 C26.599,6.23698 26.8438,7.01042 26.8438,8 C26.8438,8.97917 26.599,9.75 26.1094,10.3125 C25.6198,10.875 24.9479,11.1563 24.0938,11.1563 C23.2292,11.1563 22.5521,10.875 22.0625,10.3125 C21.5729,9.75 21.3281,8.97917 21.3281,8 C21.3281,7.01042 21.5729,6.23698 22.0625,5.67969 C22.5521,5.1224 23.2292,4.84375 24.0938,4.84375 M31.9531,5.90625 C31.849,5.84375 31.7318,5.79688 31.6016,5.76563 C31.4714,5.73438 31.3281,5.71875 31.1719,5.71875 C30.6094,5.71875 30.1797,5.90104 29.8828,6.26563 C29.5859,6.63021 29.4375,7.15104 29.4375,7.82813 L29.4375,11 L28.4375,11 L28.4375,4.98438 L29.4375,4.98438 L29.4375,5.92188 C29.6354,5.55729 29.901,5.28646 30.2344,5.10938 C30.5677,4.93229 30.974,4.84375 31.4531,4.84375 C31.526,4.84375 31.6016,4.84635 31.6797,4.85156 C31.7578,4.85677 31.849,4.86979 31.9531,4.89063 L31.9531,5.90625 M37.5625,12.8281 L37.5625,13.5938 L31.8438,13.5938 L31.8438,12.8281 L37.5625,12.8281 M38.4844,4.98438 L39.4844,4.98438 L39.4844,11 L38.4844,11 L38.4844,4.98438 M38.4844,2.64063 L39.4844,2.64063 L39.4844,3.89063 L38.4844,3.89063 L38.4844,2.64063 M46.2188,6.14063 C46.4688,5.69271 46.7656,5.36458 47.1094,5.15625 C47.4531,4.94792 47.8594,4.84375 48.3281,4.84375 C48.9531,4.84375 49.4349,5.0625 49.7734,5.5 C50.112,5.9375 50.2813,6.5625 50.2813,7.375 L50.2813,11 L49.2813,11 L49.2813,7.40625 C49.2813,6.82292 49.1797,6.39323 48.9766,6.11719 C48.7734,5.84115 48.4635,5.70313 48.0469,5.70313 C47.5365,5.70313 47.1328,5.8724 46.8359,6.21094 C46.5391,6.54948 46.3906,7.01042 46.3906,7.59375 L46.3906,11 L45.3906,11 L45.3906,7.40625 C45.3906,6.82292 45.2891,6.39323 45.0859,6.11719 C44.8828,5.84115 44.5677,5.70313 44.1406,5.70313 C43.6406,5.70313 43.2422,5.8724 42.9453,6.21094 C42.6484,6.54948 42.5,7.01042 42.5,7.59375 L42.5,11 L41.5,11 L41.5,4.98438 L42.5,4.98438 L42.5,5.92188 C42.7188,5.54688 42.987,5.27344 43.3047,5.10156 C43.6224,4.92969 43.9948,4.84375 44.4219,4.84375 C44.8594,4.84375 45.2318,4.95313 45.5391,5.17188 C45.8464,5.39063 46.0729,5.71354 46.2188,6.14063 M52.1406,8.625 L52.1406,4.98438 L53.125,4.98438 L53.125,8.59375 C53.125,9.15625 53.237,9.58073 53.4609,9.86719 C53.6849,10.1536 54.0156,10.2969 54.4531,10.2969 C54.9948,10.2969 55.4193,10.1276 55.7266,9.78906 C56.0339,9.45052 56.1875,8.98438 56.1875,8.39063 L56.1875,4.98438 L57.1719,4.98438 L57.1719,11 L56.1875,11 L56.1875,10.0781 C55.9479,10.4427 55.6693,10.7135 55.3516,10.8906 C55.0339,11.0677 54.6667,11.1563 54.25,11.1563 C53.5625,11.1563 53.0391,10.9401 52.6797,10.5078 C52.3203,10.0755 52.1406,9.44792 52.1406,8.625 M63.7813,12.8281 L63.7813,13.5938 L58.0625,13.5938 L58.0625,12.8281 L63.7813,12.8281 M64.875,10.8281 L64.875,9.84375 C65.1458,9.96875 65.4219,10.0677 65.7031,10.1406 C65.9844,10.2135 66.2604,10.25 66.5313,10.25 C67.25,10.25 67.7969,10.0078 68.1719,9.52344 C68.5469,9.03906 68.7604,8.30729 68.8125,7.32813 C68.6042,7.63021 68.3411,7.86458 68.0234,8.03125 C67.7057,8.19792 67.3542,8.28125 66.9688,8.28125 C66.1667,8.28125 65.5313,8.03906 65.0625,7.55469 C64.5938,7.07031 64.3594,6.40625 64.3594,5.5625 C64.3594,4.73958 64.6042,4.07813 65.0938,3.57813 C65.5833,3.07813 66.2344,2.82813 67.0469,2.82813 C67.974,2.82813 68.6797,3.1849 69.1641,3.89844 C69.6484,4.61198 69.8906,5.64583 69.8906,7 C69.8906,8.26042 69.5911,9.26823 68.9922,10.0234 C68.3932,10.7786 67.5885,11.1563 66.5781,11.1563 C66.3073,11.1563 66.0313,11.1302 65.75,11.0781 C65.4688,11.026 65.1771,10.9427 64.875,10.8281 M67.0469,7.4375 C67.526,7.4375 67.9089,7.27083 68.1953,6.9375 C68.4818,6.60417 68.625,6.14583 68.625,5.5625 C68.625,4.98958 68.4818,4.53385 68.1953,4.19531 C67.9089,3.85677 67.526,3.6875 67.0469,3.6875 C66.5573,3.6875 66.1693,3.85677 65.8828,4.19531 C65.5964,4.53385 65.4531,4.98958 65.4531,5.5625 C65.4531,6.14583 65.5964,6.60417 65.8828,6.9375 C66.1693,7.27083 66.5573,7.4375 67.0469,7.4375 M75.6563,5.89063 L75.6563,2.64063 L76.6406,2.64063 L76.6406,11 L75.6563,11 L75.6563,10.0938 C75.4479,10.4583 75.1849,10.7266 74.8672,10.8984 C74.5495,11.0703 74.1667,11.1563 73.7188,11.1563 C73,11.1563 72.4115,10.8672 71.9531,10.2891 C71.4948,9.71094 71.2656,8.94792 71.2656,8 C71.2656,7.05208 71.4948,6.28906 71.9531,5.71094 C72.4115,5.13281 73,4.84375 73.7188,4.84375 C74.1667,4.84375 74.5495,4.92969 74.8672,5.10156 C75.1849,5.27344 75.4479,5.53646 75.6563,5.89063 M72.2813,8 C72.2813,8.72917 72.4323,9.29948 72.7344,9.71094 C73.0365,10.1224 73.4479,10.3281 73.9688,10.3281 C74.4896,10.3281 74.901,10.1224 75.2031,9.71094 C75.5052,9.29948 75.6563,8.72917 75.6563,8 C75.6563,7.27083 75.5052,6.70052 75.2031,6.28906 C74.901,5.8776 74.4896,5.67188 73.9688,5.67188 C73.4479,5.67188 73.0365,5.8776 72.7344,6.28906 C72.4323,6.70052 72.2813,7.27083 72.2813,8 M81,5.67188 C80.4688,5.67188 80.0495,5.88021 79.7422,6.29688 C79.4349,6.71354 79.2813,7.28125 79.2813,8 C79.2813,8.71875 79.4323,9.28385 79.7344,9.69531 C80.0365,10.1068 80.4583,10.3125 81,10.3125 C81.5208,10.3125 81.9349,10.1068 82.2422,9.69531 C82.5495,9.28385 82.7031,8.71875 82.7031,8 C82.7031,7.28125 82.5495,6.71354 82.2422,6.29688 C81.9349,5.88021 81.5208,5.67188 81,5.67188 M81,4.84375 C81.8542,4.84375 82.526,5.1224 83.0156,5.67969 C83.5052,6.23698 83.75,7.01042 83.75,8 C83.75,8.97917 83.5052,9.75 83.0156,10.3125 C82.526,10.875 81.8542,11.1563 81,11.1563 C80.1354,11.1563 79.4583,10.875 78.9688,10.3125 C78.4792,9.75 78.2344,8.97917 78.2344,8 C78.2344,7.01042 78.4792,6.23698 78.9688,5.67969 C79.4583,5.1224 80.1354,4.84375 81,4.84375 M88.4219,2.64063 L88.4219,3.46875 L87.4844,3.46875 C87.1302,3.46875 86.8828,3.53906 86.7422,3.67969 C86.6016,3.82031 86.5313,4.07813 86.5313,4.45313 L86.5313,4.98438 L88.1563,4.98438 L88.1563,5.75 L86.5313,5.75 L86.5313,11 L85.5469,11 L85.5469,5.75 L84.5938,5.75 L84.5938,4.98438 L85.5469,4.98438 L85.5469,4.5625 C85.5469,3.89583 85.7005,3.40885 86.0078,3.10156 C86.3151,2.79427 86.8073,2.64063 87.4844,2.64063 L88.4219,2.64063"/>
</g>

<g fill="none" stroke="#000000" stroke-opacity="1" stroke-width="1" stroke-linecap="square" stroke-linejoin="bevel" transform="matrix(2,0,0,2,81.0841,144)"
font-family="sans" font-size="11" font-weight="100" font-style="normal" 
>
</g>

<g fill="none" stroke="#000000" stroke-opacity="1" stroke-width="1" stroke-linecap="square" stroke-linejoin="bevel" transform="matrix(2,0,0,2,81.0841,144)"
font-family="Ubuntu" font-size="11" font-weight="400" font-style="normal" 
>
</g>

<g fill="none" stroke="#000000" stroke-opacity="1" stroke-width="1" stroke-linecap="square" stroke-linejoin="bevel" transform="matrix(2,0,0,2,0.0032,194)"
font-family="Ubuntu" font-size="11" font-weight="400" font-style="normal" 
>
</g>

<g fill="none" stroke="#000000" stroke-opacity="1" stroke-width="1" stroke-linecap="square" stroke-linejoin="bevel" transform="matrix(2,0,0,2,0.0032,194)"
font-family="Ubuntu" font-size="11" font-weight="400" font-style="normal" 
>
</g>

<g fill="none" stroke="#000000" stroke-opacity="1" stroke-width="1" stroke-linecap="square" stroke-linejoin="bevel" transform="matrix(2,0,0,2,0.0032,194)"
font-family="Ubuntu" font-size="11" font-weight="400" font-style="normal" 
>
</g>

<g fill="none" stroke="#000000" stroke-opacity="1" stroke-width="1" stroke-linecap="square" stroke-linejoin="round" transform="matrix(2,0,0,2,0.0032,194)"
font-family="Ubuntu" font-size="11" font-weight="400" font-style="normal" 
>
<ellipse cx="85.142" cy="-79" rx="69.0448" ry="17.5"/>
</g>

<g fill="none" stroke="#000000" stroke-opacity="1" stroke-width="1" stroke-linecap="square" stroke-linejoin="bevel" transform="matrix(2,0,0,2,0.0032,194)"
font-family="Ubuntu" font-size="11" font-weight="400" font-style="normal" 
>
</g>

<g fill="none" stroke="#000000" stroke-opacity="1" stroke-width="1" stroke-linecap="square" stroke-linejoin="bevel" transform="matrix(2,0,0,2,102.115,22)"
font-family="Ubuntu" font-size="11" font-weight="400" font-style="normal" 
>
</g>

<g fill="none" stroke="#000000" stroke-opacity="1" stroke-width="1" stroke-linecap="square" stroke-linejoin="bevel" transform="matrix(2,0,0,2,102.115,22)"
font-family="sans" font-size="11" font-weight="100" font-style="normal" 
>
</g>

<g fill="#000000" fill-opacity="1" stroke="#000000" stroke-opacity="1" stroke-width="1" stroke-linecap="square" stroke-linejoin="round" transform="matrix(2,0,0,2,102.115,22)"
font-family="sans" font-size="11" font-weight="100" font-style="normal" 
>
<path vector-effect="none" fill-rule="nonzero" d="M2.79688,2.98438 L3.70313,2.98438 L0.90625,12.0156 L0,12.0156 L2.79688,2.98438 M8.21875,5.90625 C8.11458,5.84375 7.9974,5.79688 7.86719,5.76563 C7.73698,5.73438 7.59375,5.71875 7.4375,5.71875 C6.875,5.71875 6.44531,5.90104 6.14844,6.26563 C5.85156,6.63021 5.70313,7.15104 5.70313,7.82813 L5.70313,11 L4.70313,11 L4.70313,4.98438 L5.70313,4.98438 L5.70313,5.92188 C5.90104,5.55729 6.16667,5.28646 6.5,5.10938 C6.83333,4.93229 7.23958,4.84375 7.71875,4.84375 C7.79167,4.84375 7.86719,4.84635 7.94531,4.85156 C8.02344,4.85677 8.11458,4.86979 8.21875,4.89063 L8.21875,5.90625 M10.2188,10.0938 L10.2188,13.2813 L9.21875,13.2813 L9.21875,4.98438 L10.2188,4.98438 L10.2188,5.89063 C10.4167,5.53646 10.6745,5.27344 10.9922,5.10156 C11.3099,4.92969 11.6927,4.84375 12.1406,4.84375 C12.8698,4.84375 13.4609,5.13281 13.9141,5.71094 C14.3672,6.28906 14.5938,7.05208 14.5938,8 C14.5938,8.94792 14.3672,9.71094 13.9141,10.2891 C13.4609,10.8672 12.8698,11.1563 12.1406,11.1563 C11.6927,11.1563 11.3099,11.0703 10.9922,10.8984 C10.6745,10.7266 10.4167,10.4583 10.2188,10.0938 M13.5781,8 C13.5781,7.27083 13.4271,6.70052 13.125,6.28906 C12.8229,5.8776 12.4115,5.67188 11.8906,5.67188 C11.3698,5.67188 10.9609,5.8776 10.6641,6.28906 C10.3672,6.70052 10.2188,7.27083 10.2188,8 C10.2188,8.72917 10.3672,9.29948 10.6641,9.71094 C10.9609,10.1224 11.3698,10.3281 11.8906,10.3281 C12.4115,10.3281 12.8229,10.1224 13.125,9.71094 C13.4271,9.29948 13.5781,8.72917 13.5781,8 M16.2188,2.64063 L17.2188,2.64063 L17.2188,11 L16.2188,11 L16.2188,2.64063 M19.2656,4.98438 L20.2656,4.98438 L20.2656,11 L19.2656,11 L19.2656,4.98438 M19.2656,2.64063 L20.2656,2.64063 L20.2656,3.89063 L19.2656,3.89063 L19.2656,2.64063 M26.2813,5.89063 L26.2813,2.64063 L27.2656,2.64063 L27.2656,11 L26.2813,11 L26.2813,10.0938 C26.0729,10.4583 25.8099,10.7266 25.4922,10.8984 C25.1745,11.0703 24.7917,11.1563 24.3438,11.1563 C23.625,11.1563 23.0365,10.8672 22.5781,10.2891 C22.1198,9.71094 21.8906,8.94792 21.8906,8 C21.8906,7.05208 22.1198,6.28906 22.5781,5.71094 C23.0365,5.13281 23.625,4.84375 24.3438,4.84375 C24.7917,4.84375 25.1745,4.92969 25.4922,5.10156 C25.8099,5.27344 26.0729,5.53646 26.2813,5.89063 M22.9063,8 C22.9063,8.72917 23.0573,9.29948 23.3594,9.71094 C23.6615,10.1224 24.0729,10.3281 24.5938,10.3281 C25.1146,10.3281 25.526,10.1224 25.8281,9.71094 C26.1302,9.29948 26.2813,8.72917 26.2813,8 C26.2813,7.27083 26.1302,6.70052 25.8281,6.28906 C25.526,5.8776 25.1146,5.67188 24.5938,5.67188 C24.0729,5.67188 23.6615,5.8776 23.3594,6.28906 C23.0573,6.70052 22.9063,7.27083 22.9063,8 M32.0156,7.96875 C31.224,7.96875 30.6745,8.0625 30.3672,8.25 C30.0599,8.4375 29.9063,8.75 29.9063,9.1875 C29.9063,9.53125 30.0208,9.80729 30.25,10.0156 C30.4792,10.224 30.7917,10.3281 31.1875,10.3281 C31.7396,10.3281 32.1797,10.1328 32.5078,9.74219 C32.8359,9.35156 33,8.83854 33,8.20313 L33,7.96875 L32.0156,7.96875 M33.9844,7.5625 L33.9844,11 L33,11 L33,10.0938 C32.7813,10.4583 32.5026,10.7266 32.1641,10.8984 C31.8255,11.0703 31.4115,11.1563 30.9219,11.1563 C30.3073,11.1563 29.8177,10.9844 29.4531,10.6406 C29.0885,10.2969 28.9063,9.83333 28.9063,9.25 C28.9063,8.57292 29.1328,8.0625 29.5859,7.71875 C30.0391,7.375 30.7188,7.20313 31.625,7.20313 L33,7.20313 L33,7.10938 C33,6.65104 32.8516,6.29688 32.5547,6.04688 C32.2578,5.79688 31.8385,5.67188 31.2969,5.67188 C30.9531,5.67188 30.6172,5.71354 30.2891,5.79688 C29.9609,5.88021 29.6458,6.00521 29.3438,6.17188 L29.3438,5.26563 C29.7083,5.11979 30.0625,5.01302 30.4063,4.94531 C30.75,4.8776 31.0781,4.84375 31.3906,4.84375 C32.2656,4.84375 32.9167,5.06771 33.3438,5.51563 C33.7708,5.96354 33.9844,6.64583 33.9844,7.5625 M39.5,5.90625 C39.3958,5.84375 39.2786,5.79688 39.1484,5.76563 C39.0182,5.73438 38.875,5.71875 38.7188,5.71875 C38.1563,5.71875 37.7266,5.90104 37.4297,6.26563 C37.1328,6.63021 36.9844,7.15104 36.9844,7.82813 L36.9844,11 L35.9844,11 L35.9844,4.98438 L36.9844,4.98438 L36.9844,5.92188 C37.1823,5.55729 37.4479,5.28646 37.7813,5.10938 C38.1146,4.93229 38.5208,4.84375 39,4.84375 C39.0729,4.84375 39.1484,4.84635 39.2266,4.85156 C39.3047,4.85677 39.3958,4.86979 39.5,4.89063 L39.5,5.90625 M40.5781,2.98438 L42.0469,2.98438 L45.5938,9.6875 L45.5938,2.98438 L46.6563,2.98438 L46.6563,11 L45.1875,11 L41.625,4.29688 L41.625,11 L40.5781,11 L40.5781,2.98438 M51.0938,5.67188 C50.5625,5.67188 50.1432,5.88021 49.8359,6.29688 C49.5286,6.71354 49.375,7.28125 49.375,8 C49.375,8.71875 49.526,9.28385 49.8281,9.69531 C50.1302,10.1068 50.5521,10.3125 51.0938,10.3125 C51.6146,10.3125 52.0286,10.1068 52.3359,9.69531 C52.6432,9.28385 52.7969,8.71875 52.7969,8 C52.7969,7.28125 52.6432,6.71354 52.3359,6.29688 C52.0286,5.88021 51.6146,5.67188 51.0938,5.67188 M51.0938,4.84375 C51.9479,4.84375 52.6198,5.1224 53.1094,5.67969 C53.599,6.23698 53.8438,7.01042 53.8438,8 C53.8438,8.97917 53.599,9.75 53.1094,10.3125 C52.6198,10.875 51.9479,11.1563 51.0938,11.1563 C50.2292,11.1563 49.5521,10.875 49.0625,10.3125 C48.5729,9.75 48.3281,8.97917 48.3281,8 C48.3281,7.01042 48.5729,6.23698 49.0625,5.67969 C49.5521,5.1224 50.2292,4.84375 51.0938,4.84375 M59.4375,5.89063 L59.4375,2.64063 L60.4219,2.64063 L60.4219,11 L59.4375,11 L59.4375,10.0938 C59.2292,10.4583 58.9661,10.7266 58.6484,10.8984 C58.3307,11.0703 57.9479,11.1563 57.5,11.1563 C56.7813,11.1563 56.1927,10.8672 55.7344,10.2891 C55.276,9.71094 55.0469,8.94792 55.0469,8 C55.0469,7.05208 55.276,6.28906 55.7344,5.71094 C56.1927,5.13281 56.7813,4.84375 57.5,4.84375 C57.9479,4.84375 58.3307,4.92969 58.6484,5.10156 C58.9661,5.27344 59.2292,5.53646 59.4375,5.89063 M56.0625,8 C56.0625,8.72917 56.2135,9.29948 56.5156,9.71094 C56.8177,10.1224 57.2292,10.3281 57.75,10.3281 C58.2708,10.3281 58.6823,10.1224 58.9844,9.71094 C59.2865,9.29948 59.4375,8.72917 59.4375,8 C59.4375,7.27083 59.2865,6.70052 58.9844,6.28906 C58.6823,5.8776 58.2708,5.67188 57.75,5.67188 C57.2292,5.67188 56.8177,5.8776 56.5156,6.28906 C56.2135,6.70052 56.0625,7.27083 56.0625,8 M67.5938,7.75 L67.5938,8.23438 L63.0469,8.23438 C63.0885,8.91146 63.2917,9.42708 63.6563,9.78125 C64.0208,10.1354 64.5313,10.3125 65.1875,10.3125 C65.5729,10.3125 65.9427,10.2656 66.2969,10.1719 C66.651,10.0781 67.0052,9.94271 67.3594,9.76563 L67.3594,10.6875 C67.0052,10.8438 66.6406,10.9609 66.2656,11.0391 C65.8906,11.1172 65.5156,11.1563 65.1406,11.1563 C64.1719,11.1563 63.4089,10.8776 62.8516,10.3203 C62.2943,9.76302 62.0156,9.00521 62.0156,8.04688 C62.0156,7.06771 62.2813,6.28906 62.8125,5.71094 C63.3438,5.13281 64.0625,4.84375 64.9688,4.84375 C65.7708,4.84375 66.4089,5.10417 66.8828,5.625 C67.3568,6.14583 67.5938,6.85417 67.5938,7.75 M66.5938,7.45313 C66.5938,6.91146 66.4453,6.47917 66.1484,6.15625 C65.8516,5.83333 65.4583,5.67188 64.9688,5.67188 C64.4167,5.67188 63.9766,5.82813 63.6484,6.14063 C63.3203,6.45313 63.1302,6.89063 63.0781,7.45313 L66.5938,7.45313"/>
</g>

<g fill="none" stroke="#000000" stroke-opacity="1" stroke-width="1" stroke-linecap="square" stroke-linejoin="bevel" transform="matrix(2,0,0,2,102.115,22)"
font-family="sans" font-size="11" font-weight="100" font-style="normal" 
>
</g>

<g fill="none" stroke="#000000" stroke-opacity="1" stroke-width="1" stroke-linecap="square" stroke-linejoin="bevel" transform="matrix(2,0,0,2,102.115,22)"
font-family="Ubuntu" font-size="11" font-weight="400" font-style="normal" 
>
</g>

<g fill="none" stroke="#000000" stroke-opacity="1" stroke-width="1" stroke-linecap="square" stroke-linejoin="bevel" transform="matrix(2,0,0,2,0.0032,194)"
font-family="Ubuntu" font-size="11" font-weight="400" font-style="normal" 
>
</g>

<g fill="none" stroke="#000000" stroke-opacity="1" stroke-width="1" stroke-linecap="square" stroke-linejoin="bevel" transform="matrix(2,0,0,2,0.0032,194)"
font-family="Ubuntu" font-size="11" font-weight="400" font-style="normal" 
>
</g>

<g fill="none" stroke="#000000" stroke-opacity="1" stroke-width="1" stroke-linecap="square" stroke-linejoin="bevel" transform="matrix(2,0,0,2,0.0032,194)"
font-family="Ubuntu" font-size="11" font-weight="400" font-style="normal" 
>
</g>

<g fill="none" stroke="#000000" stroke-opacity="1" stroke-width="1" stroke-linecap="square" stroke-linejoin="round" transform="matrix(2,0,0,2,0.0032,194)"
font-family="Ubuntu" font-size="11" font-weight="400" font-style="normal" 
>
<ellipse cx="920.14" cy="-59" rx="65.794" ry="17.5"/>
</g>

<g fill="none" stroke="#000000" stroke-opacity="1" stroke-width="1" stroke-linecap="square" stroke-linejoin="bevel" transform="matrix(2,0,0,2,0.0032,194)"
font-family="Ubuntu" font-size="11" font-weight="400" font-style="normal" 
>
</g>

<g fill="none" stroke="#000000" stroke-opacity="1" stroke-width="1" stroke-linecap="square" stroke-linejoin="bevel" transform="matrix(2,0,0,2,1773.83,62)"
font-family="Ubuntu" font-size="11" font-weight="400" font-style="normal" 
>
</g>

<g fill="none" stroke="#000000" stroke-opacity="1" stroke-width="1" stroke-linecap="square" stroke-linejoin="bevel" transform="matrix(2,0,0,2,1773.83,62)"
font-family="sans" font-size="11" font-weight="100" font-style="normal" 
>
</g>

<g fill="#000000" fill-opacity="1" stroke="#000000" stroke-opacity="1" stroke-width="1" stroke-linecap="square" stroke-linejoin="round" transform="matrix(2,0,0,2,1773.83,62)"
font-family="sans" font-size="11" font-weight="100" font-style="normal" 
>
<path vector-effect="none" fill-rule="nonzero" d="M2.79688,2.98438 L3.70313,2.98438 L0.90625,12.0156 L0,12.0156 L2.79688,2.98438 M8.57813,5.15625 L8.57813,6.09375 C8.29688,5.94792 8.00521,5.84115 7.70313,5.77344 C7.40104,5.70573 7.08854,5.67188 6.76563,5.67188 C6.27604,5.67188 5.90885,5.7474 5.66406,5.89844 C5.41927,6.04948 5.29688,6.27083 5.29688,6.5625 C5.29688,6.79167 5.38542,6.97135 5.5625,7.10156 C5.73958,7.23177 6.09375,7.35938 6.625,7.48438 L6.95313,7.5625 C7.66146,7.70833 8.16146,7.91927 8.45313,8.19531 C8.74479,8.47135 8.89063,8.85417 8.89063,9.34375 C8.89063,9.89583 8.67188,10.3359 8.23438,10.6641 C7.79688,10.9922 7.1875,11.1563 6.40625,11.1563 C6.08333,11.1563 5.7474,11.125 5.39844,11.0625 C5.04948,11 4.68229,10.9063 4.29688,10.7813 L4.29688,9.76563 C4.66146,9.95313 5.02083,10.0938 5.375,10.1875 C5.72917,10.2813 6.08333,10.3281 6.4375,10.3281 C6.89583,10.3281 7.25,10.2474 7.5,10.0859 C7.75,9.92448 7.875,9.70313 7.875,9.42188 C7.875,9.15104 7.78646,8.94271 7.60938,8.79688 C7.43229,8.65104 7.03646,8.51563 6.42188,8.39063 L6.07813,8.29688 C5.46354,8.17188 5.02083,7.97656 4.75,7.71094 C4.47917,7.44531 4.34375,7.07813 4.34375,6.60938 C4.34375,6.04688 4.54427,5.61198 4.94531,5.30469 C5.34635,4.9974 5.91667,4.84375 6.65625,4.84375 C7.02083,4.84375 7.36458,4.86979 7.6875,4.92188 C8.01042,4.97396 8.30729,5.05208 8.57813,5.15625 M15.6094,7.75 L15.6094,8.23438 L11.0625,8.23438 C11.1042,8.91146 11.3073,9.42708 11.6719,9.78125 C12.0365,10.1354 12.5469,10.3125 13.2031,10.3125 C13.5885,10.3125 13.9583,10.2656 14.3125,10.1719 C14.6667,10.0781 15.0208,9.94271 15.375,9.76563 L15.375,10.6875 C15.0208,10.8438 14.6563,10.9609 14.2813,11.0391 C13.9063,11.1172 13.5313,11.1563 13.1563,11.1563 C12.1875,11.1563 11.4245,10.8776 10.8672,10.3203 C10.3099,9.76302 10.0313,9.00521 10.0313,8.04688 C10.0313,7.06771 10.2969,6.28906 10.8281,5.71094 C11.3594,5.13281 12.0781,4.84375 12.9844,4.84375 C13.7865,4.84375 14.4245,5.10417 14.8984,5.625 C15.3724,6.14583 15.6094,6.85417 15.6094,7.75 M14.6094,7.45313 C14.6094,6.91146 14.4609,6.47917 14.1641,6.15625 C13.8672,5.83333 13.474,5.67188 12.9844,5.67188 C12.4323,5.67188 11.9922,5.82813 11.6641,6.14063 C11.3359,6.45313 11.1458,6.89063 11.0938,7.45313 L14.6094,7.45313 M20.7031,5.90625 C20.599,5.84375 20.4818,5.79688 20.3516,5.76563 C20.2214,5.73438 20.0781,5.71875 19.9219,5.71875 C19.3594,5.71875 18.9297,5.90104 18.6328,6.26563 C18.3359,6.63021 18.1875,7.15104 18.1875,7.82813 L18.1875,11 L17.1875,11 L17.1875,4.98438 L18.1875,4.98438 L18.1875,5.92188 C18.3854,5.55729 18.651,5.28646 18.9844,5.10938 C19.3177,4.93229 19.724,4.84375 20.2031,4.84375 C20.276,4.84375 20.3516,4.84635 20.4297,4.85156 C20.5078,4.85677 20.599,4.86979 20.7031,4.89063 L20.7031,5.90625 M21.7344,4.98438 L22.7344,4.98438 L22.7344,11 L21.7344,11 L21.7344,4.98438 M21.7344,2.64063 L22.7344,2.64063 L22.7344,3.89063 L21.7344,3.89063 L21.7344,2.64063 M27.5156,7.96875 C26.724,7.96875 26.1745,8.0625 25.8672,8.25 C25.5599,8.4375 25.4063,8.75 25.4063,9.1875 C25.4063,9.53125 25.5208,9.80729 25.75,10.0156 C25.9792,10.224 26.2917,10.3281 26.6875,10.3281 C27.2396,10.3281 27.6797,10.1328 28.0078,9.74219 C28.3359,9.35156 28.5,8.83854 28.5,8.20313 L28.5,7.96875 L27.5156,7.96875 M29.4844,7.5625 L29.4844,11 L28.5,11 L28.5,10.0938 C28.2813,10.4583 28.0026,10.7266 27.6641,10.8984 C27.3255,11.0703 26.9115,11.1563 26.4219,11.1563 C25.8073,11.1563 25.3177,10.9844 24.9531,10.6406 C24.5885,10.2969 24.4063,9.83333 24.4063,9.25 C24.4063,8.57292 24.6328,8.0625 25.0859,7.71875 C25.5391,7.375 26.2188,7.20313 27.125,7.20313 L28.5,7.20313 L28.5,7.10938 C28.5,6.65104 28.3516,6.29688 28.0547,6.04688 C27.7578,5.79688 27.3385,5.67188 26.7969,5.67188 C26.4531,5.67188 26.1172,5.71354 25.7891,5.79688 C25.4609,5.88021 25.1458,6.00521 24.8438,6.17188 L24.8438,5.26563 C25.2083,5.11979 25.5625,5.01302 25.9063,4.94531 C26.25,4.8776 26.5781,4.84375 26.8906,4.84375 C27.7656,4.84375 28.4167,5.06771 28.8438,5.51563 C29.2708,5.96354 29.4844,6.64583 29.4844,7.5625 M31.5156,2.64063 L32.5156,2.64063 L32.5156,11 L31.5156,11 L31.5156,2.64063 M39.1406,12.8281 L39.1406,13.5938 L33.4219,13.5938 L33.4219,12.8281 L39.1406,12.8281 M45.0625,7.375 L45.0625,11 L44.0781,11 L44.0781,7.40625 C44.0781,6.83333 43.9688,6.40625 43.75,6.125 C43.5313,5.84375 43.1979,5.70313 42.75,5.70313 C42.2188,5.70313 41.7995,5.8724 41.4922,6.21094 C41.1849,6.54948 41.0313,7.01042 41.0313,7.59375 L41.0313,11 L40.0313,11 L40.0313,4.98438 L41.0313,4.98438 L41.0313,5.92188 C41.2604,5.55729 41.5365,5.28646 41.8594,5.10938 C42.1823,4.93229 42.5521,4.84375 42.9688,4.84375 C43.6563,4.84375 44.1771,5.05729 44.5313,5.48438 C44.8854,5.91146 45.0625,6.54167 45.0625,7.375 M49.375,5.67188 C48.8438,5.67188 48.4245,5.88021 48.1172,6.29688 C47.8099,6.71354 47.6563,7.28125 47.6563,8 C47.6563,8.71875 47.8073,9.28385 48.1094,9.69531 C48.4115,10.1068 48.8333,10.3125 49.375,10.3125 C49.8958,10.3125 50.3099,10.1068 50.6172,9.69531 C50.9245,9.28385 51.0781,8.71875 51.0781,8 C51.0781,7.28125 50.9245,6.71354 50.6172,6.29688 C50.3099,5.88021 49.8958,5.67188 49.375,5.67188 M49.375,4.84375 C50.2292,4.84375 50.901,5.1224 51.3906,5.67969 C51.8802,6.23698 52.125,7.01042 52.125,8 C52.125,8.97917 51.8802,9.75 51.3906,10.3125 C50.901,10.875 50.2292,11.1563 49.375,11.1563 C48.5104,11.1563 47.8333,10.875 47.3438,10.3125 C46.8542,9.75 46.6094,8.97917 46.6094,8 C46.6094,7.01042 46.8542,6.23698 47.3438,5.67969 C47.8333,5.1224 48.5104,4.84375 49.375,4.84375 M57.7188,5.89063 L57.7188,2.64063 L58.7031,2.64063 L58.7031,11 L57.7188,11 L57.7188,10.0938 C57.5104,10.4583 57.2474,10.7266 56.9297,10.8984 C56.612,11.0703 56.2292,11.1563 55.7813,11.1563 C55.0625,11.1563 54.474,10.8672 54.0156,10.2891 C53.5573,9.71094 53.3281,8.94792 53.3281,8 C53.3281,7.05208 53.5573,6.28906 54.0156,5.71094 C54.474,5.13281 55.0625,4.84375 55.7813,4.84375 C56.2292,4.84375 56.612,4.92969 56.9297,5.10156 C57.2474,5.27344 57.5104,5.53646 57.7188,5.89063 M54.3438,8 C54.3438,8.72917 54.4948,9.29948 54.7969,9.71094 C55.099,10.1224 55.5104,10.3281 56.0313,10.3281 C56.5521,10.3281 56.9635,10.1224 57.2656,9.71094 C57.5677,9.29948 57.7188,8.72917 57.7188,8 C57.7188,7.27083 57.5677,6.70052 57.2656,6.28906 C56.9635,5.8776 56.5521,5.67188 56.0313,5.67188 C55.5104,5.67188 55.099,5.8776 54.7969,6.28906 C54.4948,6.70052 54.3438,7.27083 54.3438,8 M65.875,7.75 L65.875,8.23438 L61.3281,8.23438 C61.3698,8.91146 61.5729,9.42708 61.9375,9.78125 C62.3021,10.1354 62.8125,10.3125 63.4688,10.3125 C63.8542,10.3125 64.224,10.2656 64.5781,10.1719 C64.9323,10.0781 65.2865,9.94271 65.6406,9.76563 L65.6406,10.6875 C65.2865,10.8438 64.9219,10.9609 64.5469,11.0391 C64.1719,11.1172 63.7969,11.1563 63.4219,11.1563 C62.4531,11.1563 61.6901,10.8776 61.1328,10.3203 C60.5755,9.76302 60.2969,9.00521 60.2969,8.04688 C60.2969,7.06771 60.5625,6.28906 61.0938,5.71094 C61.625,5.13281 62.3438,4.84375 63.25,4.84375 C64.0521,4.84375 64.6901,5.10417 65.1641,5.625 C65.638,6.14583 65.875,6.85417 65.875,7.75 M64.875,7.45313 C64.875,6.91146 64.7266,6.47917 64.4297,6.15625 C64.1328,5.83333 63.7396,5.67188 63.25,5.67188 C62.6979,5.67188 62.2578,5.82813 61.9297,6.14063 C61.6016,6.45313 61.4115,6.89063 61.3594,7.45313 L64.875,7.45313"/>
</g>

<g fill="none" stroke="#000000" stroke-opacity="1" stroke-width="1" stroke-linecap="square" stroke-linejoin="bevel" transform="matrix(2,0,0,2,1773.83,62)"
font-family="sans" font-size="11" font-weight="100" font-style="normal" 
>
</g>

<g fill="none" stroke="#000000" stroke-opacity="1" stroke-width="1" stroke-linecap="square" stroke-linejoin="bevel" transform="matrix(2,0,0,2,1773.83,62)"
font-family="Ubuntu" font-size="11" font-weight="400" font-style="normal" 
>
</g>

<g fill="none" stroke="#000000" stroke-opacity="1" stroke-width="1" stroke-linecap="square" stroke-linejoin="bevel" transform="matrix(2,0,0,2,0.0032,194)"
font-family="Ubuntu" font-size="11" font-weight="400" font-style="normal" 
>
</g>

<g fill="none" stroke="#000000" stroke-opacity="1" stroke-width="1" stroke-linecap="square" stroke-linejoin="bevel" transform="matrix(2,0,0,2,0.0032,194)"
font-family="Ubuntu" font-size="11" font-weight="400" font-style="normal" 
>
</g>

<g fill="none" stroke="#000000" stroke-opacity="1" stroke-width="1" stroke-linecap="square" stroke-linejoin="bevel" transform="matrix(2,0,0,2,0.0032,194)"
font-family="Ubuntu" font-size="11" font-weight="400" font-style="normal" 
>
</g>

<g fill="none" stroke="#000000" stroke-opacity="1" stroke-width="1" stroke-linecap="square" stroke-linejoin="round" transform="matrix(2,0,0,2,0.0032,194)"
font-family="Ubuntu" font-size="11" font-weight="400" font-style="normal" 
>
<path vector-effect="none" fill-rule="evenodd" d="M435.91,-39.773 C484.01,-43.518 541.37,-47.984 588.7,-51.669 "/>
</g>

<g fill="none" stroke="#000000" stroke-opacity="1" stroke-width="1" stroke-linecap="square" stroke-linejoin="bevel" transform="matrix(2,0,0,2,0.0032,194)"
font-family="Ubuntu" font-size="11" font-weight="400" font-style="normal" 
>
</g>

<g fill="none" stroke="#000000" stroke-opacity="1" stroke-width="1" stroke-linecap="square" stroke-linejoin="bevel" transform="matrix(2,0,0,2,939.853,63)"
font-family="Ubuntu" font-size="11" font-weight="400" font-style="normal" 
>
</g>

<g fill="none" stroke="#000000" stroke-opacity="1" stroke-width="1" stroke-linecap="square" stroke-linejoin="bevel" transform="matrix(2,0,0,2,939.853,63)"
font-family="sans" font-size="11" font-weight="100" font-style="normal" 
>
</g>

<g fill="#000000" fill-opacity="1" stroke="#000000" stroke-opacity="1" stroke-width="1" stroke-linecap="square" stroke-linejoin="round" transform="matrix(2,0,0,2,939.853,63)"
font-family="sans" font-size="11" font-weight="100" font-style="normal" 
>
<path vector-effect="none" fill-rule="nonzero" d="M2.79688,2.98438 L3.70313,2.98438 L0.90625,12.0156 L0,12.0156 L2.79688,2.98438 M7.07813,5.67188 C6.54688,5.67188 6.1276,5.88021 5.82031,6.29688 C5.51302,6.71354 5.35938,7.28125 5.35938,8 C5.35938,8.71875 5.51042,9.28385 5.8125,9.69531 C6.11458,10.1068 6.53646,10.3125 7.07813,10.3125 C7.59896,10.3125 8.01302,10.1068 8.32031,9.69531 C8.6276,9.28385 8.78125,8.71875 8.78125,8 C8.78125,7.28125 8.6276,6.71354 8.32031,6.29688 C8.01302,5.88021 7.59896,5.67188 7.07813,5.67188 M7.07813,4.84375 C7.93229,4.84375 8.60417,5.1224 9.09375,5.67969 C9.58333,6.23698 9.82813,7.01042 9.82813,8 C9.82813,8.97917 9.58333,9.75 9.09375,10.3125 C8.60417,10.875 7.93229,11.1563 7.07813,11.1563 C6.21354,11.1563 5.53646,10.875 5.04688,10.3125 C4.55729,9.75 4.3125,8.97917 4.3125,8 C4.3125,7.01042 4.55729,6.23698 5.04688,5.67969 C5.53646,5.1224 6.21354,4.84375 7.07813,4.84375 M15.4219,5.89063 L15.4219,2.64063 L16.4063,2.64063 L16.4063,11 L15.4219,11 L15.4219,10.0938 C15.2135,10.4583 14.9505,10.7266 14.6328,10.8984 C14.3151,11.0703 13.9323,11.1563 13.4844,11.1563 C12.7656,11.1563 12.1771,10.8672 11.7188,10.2891 C11.2604,9.71094 11.0313,8.94792 11.0313,8 C11.0313,7.05208 11.2604,6.28906 11.7188,5.71094 C12.1771,5.13281 12.7656,4.84375 13.4844,4.84375 C13.9323,4.84375 14.3151,4.92969 14.6328,5.10156 C14.9505,5.27344 15.2135,5.53646 15.4219,5.89063 M12.0469,8 C12.0469,8.72917 12.1979,9.29948 12.5,9.71094 C12.8021,10.1224 13.2135,10.3281 13.7344,10.3281 C14.2552,10.3281 14.6667,10.1224 14.9688,9.71094 C15.2708,9.29948 15.4219,8.72917 15.4219,8 C15.4219,7.27083 15.2708,6.70052 14.9688,6.28906 C14.6667,5.8776 14.2552,5.67188 13.7344,5.67188 C13.2135,5.67188 12.8021,5.8776 12.5,6.28906 C12.1979,6.70052 12.0469,7.27083 12.0469,8 M20.7656,5.67188 C20.2344,5.67188 19.8151,5.88021 19.5078,6.29688 C19.2005,6.71354 19.0469,7.28125 19.0469,8 C19.0469,8.71875 19.1979,9.28385 19.5,9.69531 C19.8021,10.1068 20.224,10.3125 20.7656,10.3125 C21.2865,10.3125 21.7005,10.1068 22.0078,9.69531 C22.3151,9.28385 22.4688,8.71875 22.4688,8 C22.4688,7.28125 22.3151,6.71354 22.0078,6.29688 C21.7005,5.88021 21.2865,5.67188 20.7656,5.67188 M20.7656,4.84375 C21.6198,4.84375 22.2917,5.1224 22.7813,5.67969 C23.2708,6.23698 23.5156,7.01042 23.5156,8 C23.5156,8.97917 23.2708,9.75 22.7813,10.3125 C22.2917,10.875 21.6198,11.1563 20.7656,11.1563 C19.901,11.1563 19.224,10.875 18.7344,10.3125 C18.2448,9.75 18,8.97917 18,8 C18,7.01042 18.2448,6.23698 18.7344,5.67969 C19.224,5.1224 19.901,4.84375 20.7656,4.84375 M29.8281,6.14063 C30.0781,5.69271 30.375,5.36458 30.7188,5.15625 C31.0625,4.94792 31.4688,4.84375 31.9375,4.84375 C32.5625,4.84375 33.0443,5.0625 33.3828,5.5 C33.7214,5.9375 33.8906,6.5625 33.8906,7.375 L33.8906,11 L32.8906,11 L32.8906,7.40625 C32.8906,6.82292 32.7891,6.39323 32.5859,6.11719 C32.3828,5.84115 32.0729,5.70313 31.6563,5.70313 C31.1458,5.70313 30.7422,5.8724 30.4453,6.21094 C30.1484,6.54948 30,7.01042 30,7.59375 L30,11 L29,11 L29,7.40625 C29,6.82292 28.8984,6.39323 28.6953,6.11719 C28.4922,5.84115 28.1771,5.70313 27.75,5.70313 C27.25,5.70313 26.8516,5.8724 26.5547,6.21094 C26.2578,6.54948 26.1094,7.01042 26.1094,7.59375 L26.1094,11 L25.1094,11 L25.1094,4.98438 L26.1094,4.98438 L26.1094,5.92188 C26.3281,5.54688 26.5964,5.27344 26.9141,5.10156 C27.2318,4.92969 27.6042,4.84375 28.0313,4.84375 C28.4688,4.84375 28.8411,4.95313 29.1484,5.17188 C29.4557,5.39063 29.6823,5.71354 29.8281,6.14063 M41,7.75 L41,8.23438 L36.4531,8.23438 C36.4948,8.91146 36.6979,9.42708 37.0625,9.78125 C37.4271,10.1354 37.9375,10.3125 38.5938,10.3125 C38.9792,10.3125 39.349,10.2656 39.7031,10.1719 C40.0573,10.0781 40.4115,9.94271 40.7656,9.76563 L40.7656,10.6875 C40.4115,10.8438 40.0469,10.9609 39.6719,11.0391 C39.2969,11.1172 38.9219,11.1563 38.5469,11.1563 C37.5781,11.1563 36.8151,10.8776 36.2578,10.3203 C35.7005,9.76302 35.4219,9.00521 35.4219,8.04688 C35.4219,7.06771 35.6875,6.28906 36.2188,5.71094 C36.75,5.13281 37.4688,4.84375 38.375,4.84375 C39.1771,4.84375 39.8151,5.10417 40.2891,5.625 C40.763,6.14583 41,6.85417 41,7.75 M40,7.45313 C40,6.91146 39.8516,6.47917 39.5547,6.15625 C39.2578,5.83333 38.8646,5.67188 38.375,5.67188 C37.8229,5.67188 37.3828,5.82813 37.0547,6.14063 C36.7266,6.45313 36.5365,6.89063 36.4844,7.45313 L40,7.45313 M43.5938,3.28125 L43.5938,4.98438 L45.625,4.98438 L45.625,5.75 L43.5938,5.75 L43.5938,9.01563 C43.5938,9.50521 43.6615,9.82031 43.7969,9.96094 C43.9323,10.1016 44.2031,10.1719 44.6094,10.1719 L45.625,10.1719 L45.625,11 L44.6094,11 C43.849,11 43.3229,10.8568 43.0313,10.5703 C42.7396,10.2839 42.5938,9.76563 42.5938,9.01563 L42.5938,5.75 L41.875,5.75 L41.875,4.98438 L42.5938,4.98438 L42.5938,3.28125 L43.5938,3.28125 M50.4063,5.90625 C50.3021,5.84375 50.1849,5.79688 50.0547,5.76563 C49.9245,5.73438 49.7813,5.71875 49.625,5.71875 C49.0625,5.71875 48.6328,5.90104 48.3359,6.26563 C48.0391,6.63021 47.8906,7.15104 47.8906,7.82813 L47.8906,11 L46.8906,11 L46.8906,4.98438 L47.8906,4.98438 L47.8906,5.92188 C48.0885,5.55729 48.3542,5.28646 48.6875,5.10938 C49.0208,4.93229 49.4271,4.84375 49.9063,4.84375 C49.9792,4.84375 50.0547,4.84635 50.1328,4.85156 C50.2109,4.85677 50.3021,4.86979 50.4063,4.89063 L50.4063,5.90625 M53.9531,11.5625 C53.6719,12.2813 53.3984,12.7474 53.1328,12.9609 C52.8672,13.1745 52.5104,13.2813 52.0625,13.2813 L51.2813,13.2813 L51.2813,12.4688 L51.8594,12.4688 C52.1302,12.4688 52.3411,12.4036 52.4922,12.2734 C52.6432,12.1432 52.8073,11.8385 52.9844,11.3594 L53.1719,10.9063 L50.7344,4.98438 L51.7813,4.98438 L53.6563,9.6875 L55.5469,4.98438 L56.5938,4.98438 L53.9531,11.5625 M59.7031,2.98438 L60.6094,2.98438 L57.8125,12.0156 L56.9063,12.0156 L59.7031,2.98438 M64.6875,2.64063 L64.6875,3.46875 L63.75,3.46875 C63.3958,3.46875 63.1484,3.53906 63.0078,3.67969 C62.8672,3.82031 62.7969,4.07813 62.7969,4.45313 L62.7969,4.98438 L64.4219,4.98438 L64.4219,5.75 L62.7969,5.75 L62.7969,11 L61.8125,11 L61.8125,5.75 L60.8594,5.75 L60.8594,4.98438 L61.8125,4.98438 L61.8125,4.5625 C61.8125,3.89583 61.9661,3.40885 62.2734,3.10156 C62.5807,2.79427 63.0729,2.64063 63.75,2.64063 L64.6875,2.64063 M65.5,4.98438 L66.5,4.98438 L66.5,11 L65.5,11 L65.5,4.98438 M65.5,2.64063 L66.5,2.64063 L66.5,3.89063 L65.5,3.89063 L65.5,2.64063 M68.5469,2.64063 L69.5469,2.64063 L69.5469,11 L68.5469,11 L68.5469,2.64063 M72.5781,3.28125 L72.5781,4.98438 L74.6094,4.98438 L74.6094,5.75 L72.5781,5.75 L72.5781,9.01563 C72.5781,9.50521 72.6458,9.82031 72.7813,9.96094 C72.9167,10.1016 73.1875,10.1719 73.5938,10.1719 L74.6094,10.1719 L74.6094,11 L73.5938,11 C72.8333,11 72.3073,10.8568 72.0156,10.5703 C71.724,10.2839 71.5781,9.76563 71.5781,9.01563 L71.5781,5.75 L70.8594,5.75 L70.8594,4.98438 L71.5781,4.98438 L71.5781,3.28125 L72.5781,3.28125 M81.0625,7.75 L81.0625,8.23438 L76.5156,8.23438 C76.5573,8.91146 76.7604,9.42708 77.125,9.78125 C77.4896,10.1354 78,10.3125 78.6563,10.3125 C79.0417,10.3125 79.4115,10.2656 79.7656,10.1719 C80.1198,10.0781 80.474,9.94271 80.8281,9.76563 L80.8281,10.6875 C80.474,10.8438 80.1094,10.9609 79.7344,11.0391 C79.3594,11.1172 78.9844,11.1563 78.6094,11.1563 C77.6406,11.1563 76.8776,10.8776 76.3203,10.3203 C75.763,9.76302 75.4844,9.00521 75.4844,8.04688 C75.4844,7.06771 75.75,6.28906 76.2813,5.71094 C76.8125,5.13281 77.5313,4.84375 78.4375,4.84375 C79.2396,4.84375 79.8776,5.10417 80.3516,5.625 C80.8255,6.14583 81.0625,6.85417 81.0625,7.75 M80.0625,7.45313 C80.0625,6.91146 79.9141,6.47917 79.6172,6.15625 C79.3203,5.83333 78.9271,5.67188 78.4375,5.67188 C77.8854,5.67188 77.4453,5.82813 77.1172,6.14063 C76.7891,6.45313 76.599,6.89063 76.5469,7.45313 L80.0625,7.45313 M86.1563,5.90625 C86.0521,5.84375 85.9349,5.79688 85.8047,5.76563 C85.6745,5.73438 85.5313,5.71875 85.375,5.71875 C84.8125,5.71875 84.3828,5.90104 84.0859,6.26563 C83.7891,6.63021 83.6406,7.15104 83.6406,7.82813 L83.6406,11 L82.6406,11 L82.6406,4.98438 L83.6406,4.98438 L83.6406,5.92188 C83.8385,5.55729 84.1042,5.28646 84.4375,5.10938 C84.7708,4.93229 85.1771,4.84375 85.6563,4.84375 C85.7292,4.84375 85.8047,4.84635 85.8828,4.85156 C85.9609,4.85677 86.0521,4.86979 86.1563,4.89063 L86.1563,5.90625 M92.3438,7.75 L92.3438,8.23438 L87.7969,8.23438 C87.8385,8.91146 88.0417,9.42708 88.4063,9.78125 C88.7708,10.1354 89.2813,10.3125 89.9375,10.3125 C90.3229,10.3125 90.6927,10.2656 91.0469,10.1719 C91.401,10.0781 91.7552,9.94271 92.1094,9.76563 L92.1094,10.6875 C91.7552,10.8438 91.3906,10.9609 91.0156,11.0391 C90.6406,11.1172 90.2656,11.1563 89.8906,11.1563 C88.9219,11.1563 88.1589,10.8776 87.6016,10.3203 C87.0443,9.76302 86.7656,9.00521 86.7656,8.04688 C86.7656,7.06771 87.0313,6.28906 87.5625,5.71094 C88.0938,5.13281 88.8125,4.84375 89.7188,4.84375 C90.5208,4.84375 91.1589,5.10417 91.6328,5.625 C92.1068,6.14583 92.3438,6.85417 92.3438,7.75 M91.3438,7.45313 C91.3438,6.91146 91.1953,6.47917 90.8984,6.15625 C90.6016,5.83333 90.2083,5.67188 89.7188,5.67188 C89.1667,5.67188 88.7266,5.82813 88.3984,6.14063 C88.0703,6.45313 87.8802,6.89063 87.8281,7.45313 L91.3438,7.45313 M97.9219,5.89063 L97.9219,2.64063 L98.9063,2.64063 L98.9063,11 L97.9219,11 L97.9219,10.0938 C97.7135,10.4583 97.4505,10.7266 97.1328,10.8984 C96.8151,11.0703 96.4323,11.1563 95.9844,11.1563 C95.2656,11.1563 94.6771,10.8672 94.2188,10.2891 C93.7604,9.71094 93.5313,8.94792 93.5313,8 C93.5313,7.05208 93.7604,6.28906 94.2188,5.71094 C94.6771,5.13281 95.2656,4.84375 95.9844,4.84375 C96.4323,4.84375 96.8151,4.92969 97.1328,5.10156 C97.4505,5.27344 97.7135,5.53646 97.9219,5.89063 M94.5469,8 C94.5469,8.72917 94.6979,9.29948 95,9.71094 C95.3021,10.1224 95.7135,10.3281 96.2344,10.3281 C96.7552,10.3281 97.1667,10.1224 97.4688,9.71094 C97.7708,9.29948 97.9219,8.72917 97.9219,8 C97.9219,7.27083 97.7708,6.70052 97.4688,6.28906 C97.1667,5.8776 96.7552,5.67188 96.2344,5.67188 C95.7135,5.67188 95.3021,5.8776 95,6.28906 C94.6979,6.70052 94.5469,7.27083 94.5469,8 "/>
</g>

<g fill="none" stroke="#000000" stroke-opacity="1" stroke-width="1" stroke-linecap="square" stroke-linejoin="bevel" transform="matrix(2,0,0,2,939.853,63)"
font-family="sans" font-size="11" font-weight="100" font-style="normal" 
>
</g>

<g fill="none" stroke="#000000" stroke-opacity="1" stroke-width="1" stroke-linecap="square" stroke-linejoin="bevel" transform="matrix(2,0,0,2,939.853,63)"
font-family="Ubuntu" font-size="11" font-weight="400" font-style="normal" 
>
</g>

<g fill="none" stroke="#000000" stroke-opacity="1" stroke-width="1" stroke-linecap="square" stroke-linejoin="bevel" transform="matrix(2,0,0,2,0.0032,194)"
font-family="Ubuntu" font-size="11" font-weight="400" font-style="normal" 
>
</g>

<g fill="#000000" fill-opacity="1" stroke="#000000" stroke-opacity="1" stroke-width="1" stroke-linecap="square" stroke-linejoin="round" transform="matrix(2,0,0,2,0.0032,194)"
font-family="Ubuntu" font-size="11" font-weight="400" font-style="normal" 
>
<path vector-effect="none" fill-rule="evenodd" d="M588.7,-51.669 L588.979,-48.0815 L598.95,-52.467 L588.421,-55.2565 L588.7,-51.669"/>
</g>

<g fill="none" stroke="#000000" stroke-opacity="1" stroke-width="1" stroke-linecap="square" stroke-linejoin="bevel" transform="matrix(2,0,0,2,0.0032,194)"
font-family="Ubuntu" font-size="11" font-weight="400" font-style="normal" 
>
</g>

<g fill="none" stroke="#000000" stroke-opacity="1" stroke-width="1" stroke-linecap="square" stroke-linejoin="bevel" transform="matrix(2,0,0,2,0.0032,194)"
font-family="Ubuntu" font-size="11" font-weight="400" font-style="normal" 
>
</g>

<g fill="none" stroke="#000000" stroke-opacity="1" stroke-width="1" stroke-linecap="square" stroke-linejoin="bevel" transform="matrix(2,0,0,2,0.0032,194)"
font-family="Ubuntu" font-size="11" font-weight="400" font-style="normal" 
>
</g>

<g fill="none" stroke="#000000" stroke-opacity="1" stroke-width="1" stroke-linecap="square" stroke-linejoin="bevel" transform="matrix(2,0,0,2,0.0032,194)"
font-family="Ubuntu" font-size="11" font-weight="400" font-style="normal" 
>
</g>

<g fill="none" stroke="#000000" stroke-opacity="1" stroke-width="1" stroke-linecap="square" stroke-linejoin="round" transform="matrix(2,0,0,2,0.0032,194)"
font-family="Ubuntu" font-size="11" font-weight="400" font-style="normal" 
>
<path vector-effect="none" fill-rule="evenodd" d="M170.59,-17.425 C185.49,-17.674 200.85,-18.156 215.28,-19 C221.61,-19.369 228.11,-19.835 234.66,-20.37 "/>
</g>

<g fill="none" stroke="#000000" stroke-opacity="1" stroke-width="1" stroke-linecap="square" stroke-linejoin="bevel" transform="matrix(2,0,0,2,0.0032,194)"
font-family="Ubuntu" font-size="11" font-weight="400" font-style="normal" 
>
</g>

<g fill="none" stroke="#000000" stroke-opacity="1" stroke-width="1" stroke-linecap="square" stroke-linejoin="bevel" transform="matrix(2,0,0,2,369.141,127)"
font-family="Ubuntu" font-size="11" font-weight="400" font-style="normal" 
>
</g>

<g fill="none" stroke="#000000" stroke-opacity="1" stroke-width="1" stroke-linecap="square" stroke-linejoin="bevel" transform="matrix(2,0,0,2,369.141,127)"
font-family="sans" font-size="11" font-weight="100" font-style="normal" 
>
</g>

<g fill="#000000" fill-opacity="1" stroke="#000000" stroke-opacity="1" stroke-width="1" stroke-linecap="square" stroke-linejoin="round" transform="matrix(2,0,0,2,369.141,127)"
font-family="sans" font-size="11" font-weight="100" font-style="normal" 
>
<path vector-effect="none" fill-rule="nonzero" d="M2.79688,2.98438 L3.70313,2.98438 L0.90625,12.0156 L0,12.0156 L2.79688,2.98438 M4.73438,4.98438 L5.73438,4.98438 L5.73438,11 L4.73438,11 L4.73438,4.98438 M4.73438,2.64063 L5.73438,2.64063 L5.73438,3.89063 L4.73438,3.89063 L4.73438,2.64063 M12.4688,6.14063 C12.7188,5.69271 13.0156,5.36458 13.3594,5.15625 C13.7031,4.94792 14.1094,4.84375 14.5781,4.84375 C15.2031,4.84375 15.6849,5.0625 16.0234,5.5 C16.362,5.9375 16.5313,6.5625 16.5313,7.375 L16.5313,11 L15.5313,11 L15.5313,7.40625 C15.5313,6.82292 15.4297,6.39323 15.2266,6.11719 C15.0234,5.84115 14.7135,5.70313 14.2969,5.70313 C13.7865,5.70313 13.3828,5.8724 13.0859,6.21094 C12.7891,6.54948 12.6406,7.01042 12.6406,7.59375 L12.6406,11 L11.6406,11 L11.6406,7.40625 C11.6406,6.82292 11.5391,6.39323 11.3359,6.11719 C11.1328,5.84115 10.8177,5.70313 10.3906,5.70313 C9.89063,5.70313 9.49219,5.8724 9.19531,6.21094 C8.89844,6.54948 8.75,7.01042 8.75,7.59375 L8.75,11 L7.75,11 L7.75,4.98438 L8.75,4.98438 L8.75,5.92188 C8.96875,5.54688 9.23698,5.27344 9.55469,5.10156 C9.8724,4.92969 10.2448,4.84375 10.6719,4.84375 C11.1094,4.84375 11.4818,4.95313 11.7891,5.17188 C12.0964,5.39063 12.3229,5.71354 12.4688,6.14063 M18.3906,8.625 L18.3906,4.98438 L19.375,4.98438 L19.375,8.59375 C19.375,9.15625 19.487,9.58073 19.7109,9.86719 C19.9349,10.1536 20.2656,10.2969 20.7031,10.2969 C21.2448,10.2969 21.6693,10.1276 21.9766,9.78906 C22.2839,9.45052 22.4375,8.98438 22.4375,8.39063 L22.4375,4.98438 L23.4219,4.98438 L23.4219,11 L22.4375,11 L22.4375,10.0781 C22.1979,10.4427 21.9193,10.7135 21.6016,10.8906 C21.2839,11.0677 20.9167,11.1563 20.5,11.1563 C19.8125,11.1563 19.2891,10.9401 18.9297,10.5078 C18.5703,10.0755 18.3906,9.44792 18.3906,8.625 M20.875,4.84375"/>
</g>

<g fill="none" stroke="#000000" stroke-opacity="1" stroke-width="1" stroke-linecap="square" stroke-linejoin="bevel" transform="matrix(2,0,0,2,369.141,127)"
font-family="sans" font-size="11" font-weight="100" font-style="normal" 
>
</g>

<g fill="none" stroke="#000000" stroke-opacity="1" stroke-width="1" stroke-linecap="square" stroke-linejoin="bevel" transform="matrix(2,0,0,2,369.141,127)"
font-family="Ubuntu" font-size="11" font-weight="400" font-style="normal" 
>
</g>

<g fill="none" stroke="#000000" stroke-opacity="1" stroke-width="1" stroke-linecap="square" stroke-linejoin="bevel" transform="matrix(2,0,0,2,0.0032,194)"
font-family="Ubuntu" font-size="11" font-weight="400" font-style="normal" 
>
</g>

<g fill="#000000" fill-opacity="1" stroke="#000000" stroke-opacity="1" stroke-width="1" stroke-linecap="square" stroke-linejoin="round" transform="matrix(2,0,0,2,0.0032,194)"
font-family="Ubuntu" font-size="11" font-weight="400" font-style="normal" 
>
<path vector-effect="none" fill-rule="evenodd" d="M234.66,-20.37 L234.972,-16.7615 L244.97,-21.262 L234.348,-23.9785 L234.66,-20.37"/>
</g>

<g fill="none" stroke="#000000" stroke-opacity="1" stroke-width="1" stroke-linecap="square" stroke-linejoin="bevel" transform="matrix(2,0,0,2,0.0032,194)"
font-family="Ubuntu" font-size="11" font-weight="400" font-style="normal" 
>
</g>

<g fill="none" stroke="#000000" stroke-opacity="1" stroke-width="1" stroke-linecap="square" stroke-linejoin="bevel" transform="matrix(2,0,0,2,0.0032,194)"
font-family="Ubuntu" font-size="11" font-weight="400" font-style="normal" 
>
</g>

<g fill="none" stroke="#000000" stroke-opacity="1" stroke-width="1" stroke-linecap="square" stroke-linejoin="bevel" transform="matrix(2,0,0,2,0.0032,194)"
font-family="Ubuntu" font-size="11" font-weight="400" font-style="normal" 
>
</g>

<g fill="none" stroke="#000000" stroke-opacity="1" stroke-width="1" stroke-linecap="square" stroke-linejoin="bevel" transform="matrix(2,0,0,2,0.0032,194)"
font-family="Ubuntu" font-size="11" font-weight="400" font-style="normal" 
>
</g>

<g fill="none" stroke="#000000" stroke-opacity="1" stroke-width="1" stroke-linecap="square" stroke-linejoin="round" transform="matrix(2,0,0,2,0.0032,194)"
font-family="Ubuntu" font-size="11" font-weight="400" font-style="normal" 
>
<path vector-effect="none" fill-rule="evenodd" d="M135.72,-66.438 C149.46,-63.155 164.41,-59.765 178.28,-57 C198.72,-52.927 220.76,-49.068 241.65,-45.655 "/>
</g>

<g fill="none" stroke="#000000" stroke-opacity="1" stroke-width="1" stroke-linecap="square" stroke-linejoin="bevel" transform="matrix(2,0,0,2,0.0032,194)"
font-family="Ubuntu" font-size="11" font-weight="400" font-style="normal" 
>
</g>

<g fill="none" stroke="#000000" stroke-opacity="1" stroke-width="1" stroke-linecap="square" stroke-linejoin="bevel" transform="matrix(2,0,0,2,364.391,51)"
font-family="Ubuntu" font-size="11" font-weight="400" font-style="normal" 
>
</g>

<g fill="none" stroke="#000000" stroke-opacity="1" stroke-width="1" stroke-linecap="square" stroke-linejoin="bevel" transform="matrix(2,0,0,2,364.391,51)"
font-family="sans" font-size="11" font-weight="100" font-style="normal" 
>
</g>

<g fill="#000000" fill-opacity="1" stroke="#000000" stroke-opacity="1" stroke-width="1" stroke-linecap="square" stroke-linejoin="round" transform="matrix(2,0,0,2,364.391,51)"
font-family="sans" font-size="11" font-weight="100" font-style="normal" 
>
<path vector-effect="none" fill-rule="nonzero" d="M2.79688,2.98438 L3.70313,2.98438 L0.90625,12.0156 L0,12.0156 L2.79688,2.98438 M8.57813,5.15625 L8.57813,6.09375 C8.29688,5.94792 8.00521,5.84115 7.70313,5.77344 C7.40104,5.70573 7.08854,5.67188 6.76563,5.67188 C6.27604,5.67188 5.90885,5.7474 5.66406,5.89844 C5.41927,6.04948 5.29688,6.27083 5.29688,6.5625 C5.29688,6.79167 5.38542,6.97135 5.5625,7.10156 C5.73958,7.23177 6.09375,7.35938 6.625,7.48438 L6.95313,7.5625 C7.66146,7.70833 8.16146,7.91927 8.45313,8.19531 C8.74479,8.47135 8.89063,8.85417 8.89063,9.34375 C8.89063,9.89583 8.67188,10.3359 8.23438,10.6641 C7.79688,10.9922 7.1875,11.1563 6.40625,11.1563 C6.08333,11.1563 5.7474,11.125 5.39844,11.0625 C5.04948,11 4.68229,10.9063 4.29688,10.7813 L4.29688,9.76563 C4.66146,9.95313 5.02083,10.0938 5.375,10.1875 C5.72917,10.2813 6.08333,10.3281 6.4375,10.3281 C6.89583,10.3281 7.25,10.2474 7.5,10.0859 C7.75,9.92448 7.875,9.70313 7.875,9.42188 C7.875,9.15104 7.78646,8.94271 7.60938,8.79688 C7.43229,8.65104 7.03646,8.51563 6.42188,8.39063 L6.07813,8.29688 C5.46354,8.17188 5.02083,7.97656 4.75,7.71094 C4.47917,7.44531 4.34375,7.07813 4.34375,6.60938 C4.34375,6.04688 4.54427,5.61198 4.94531,5.30469 C5.34635,4.9974 5.91667,4.84375 6.65625,4.84375 C7.02083,4.84375 7.36458,4.86979 7.6875,4.92188 C8.01042,4.97396 8.30729,5.05208 8.57813,5.15625 M14.7813,5.21875 L14.7813,6.14063 C14.5104,5.98438 14.2344,5.86719 13.9531,5.78906 C13.6719,5.71094 13.3854,5.67188 13.0938,5.67188 C12.4583,5.67188 11.9635,5.875 11.6094,6.28125 C11.2552,6.6875 11.0781,7.26042 11.0781,8 C11.0781,8.72917 11.2552,9.29688 11.6094,9.70313 C11.9635,10.1094 12.4583,10.3125 13.0938,10.3125 C13.3854,10.3125 13.6719,10.276 13.9531,10.2031 C14.2344,10.1302 14.5104,10.0156 14.7813,9.85938 L14.7813,10.7656 C14.5104,10.901 14.2266,11 13.9297,11.0625 C13.6328,11.125 13.3177,11.1563 12.9844,11.1563 C12.0781,11.1563 11.3594,10.8724 10.8281,10.3047 C10.2969,9.73698 10.0313,8.96875 10.0313,8 C10.0313,7.02083 10.2995,6.25 10.8359,5.6875 C11.3724,5.125 12.1094,4.84375 13.0469,4.84375 C13.3594,4.84375 13.6589,4.875 13.9453,4.9375 C14.2318,5 14.5104,5.09375 14.7813,5.21875 M19.2344,7.96875 C18.4427,7.96875 17.8932,8.0625 17.5859,8.25 C17.2786,8.4375 17.125,8.75 17.125,9.1875 C17.125,9.53125 17.2396,9.80729 17.4688,10.0156 C17.6979,10.224 18.0104,10.3281 18.4063,10.3281 C18.9583,10.3281 19.3984,10.1328 19.7266,9.74219 C20.0547,9.35156 20.2188,8.83854 20.2188,8.20313 L20.2188,7.96875 L19.2344,7.96875 M21.2031,7.5625 L21.2031,11 L20.2188,11 L20.2188,10.0938 C20,10.4583 19.7214,10.7266 19.3828,10.8984 C19.0443,11.0703 18.6302,11.1563 18.1406,11.1563 C17.526,11.1563 17.0365,10.9844 16.6719,10.6406 C16.3073,10.2969 16.125,9.83333 16.125,9.25 C16.125,8.57292 16.3516,8.0625 16.8047,7.71875 C17.2578,7.375 17.9375,7.20313 18.8438,7.20313 L20.2188,7.20313 L20.2188,7.10938 C20.2188,6.65104 20.0703,6.29688 19.7734,6.04688 C19.4766,5.79688 19.0573,5.67188 18.5156,5.67188 C18.1719,5.67188 17.8359,5.71354 17.5078,5.79688 C17.1797,5.88021 16.8646,6.00521 16.5625,6.17188 L16.5625,5.26563 C16.9271,5.11979 17.2813,5.01302 17.625,4.94531 C17.9688,4.8776 18.2969,4.84375 18.6094,4.84375 C19.4844,4.84375 20.1354,5.06771 20.5625,5.51563 C20.9896,5.96354 21.2031,6.64583 21.2031,7.5625 M28.2344,7.375 L28.2344,11 L27.25,11 L27.25,7.40625 C27.25,6.83333 27.1406,6.40625 26.9219,6.125 C26.7031,5.84375 26.3698,5.70313 25.9219,5.70313 C25.3906,5.70313 24.9714,5.8724 24.6641,6.21094 C24.3568,6.54948 24.2031,7.01042 24.2031,7.59375 L24.2031,11 L23.2031,11 L23.2031,4.98438 L24.2031,4.98438 L24.2031,5.92188 C24.4323,5.55729 24.7083,5.28646 25.0313,5.10938 C25.3542,4.93229 25.724,4.84375 26.1406,4.84375 C26.8281,4.84375 27.349,5.05729 27.7031,5.48438 C28.0573,5.91146 28.2344,6.54167 28.2344,7.375 "/>
</g>

<g fill="none" stroke="#000000" stroke-opacity="1" stroke-width="1" stroke-linecap="square" stroke-linejoin="bevel" transform="matrix(2,0,0,2,364.391,51)"
font-family="sans" font-size="11" font-weight="100" font-style="normal" 
>
</g>

<g fill="none" stroke="#000000" stroke-opacity="1" stroke-width="1" stroke-linecap="square" stroke-linejoin="bevel" transform="matrix(2,0,0,2,364.391,51)"
font-family="Ubuntu" font-size="11" font-weight="400" font-style="normal" 
>
</g>

<g fill="none" stroke="#000000" stroke-opacity="1" stroke-width="1" stroke-linecap="square" stroke-linejoin="bevel" transform="matrix(2,0,0,2,0.0032,194)"
font-family="Ubuntu" font-size="11" font-weight="400" font-style="normal" 
>
</g>

<g fill="#000000" fill-opacity="1" stroke="#000000" stroke-opacity="1" stroke-width="1" stroke-linecap="square" stroke-linejoin="round" transform="matrix(2,0,0,2,0.0032,194)"
font-family="Ubuntu" font-size="11" font-weight="400" font-style="normal" 
>
<path vector-effect="none" fill-rule="evenodd" d="M241.65,-45.655 L241.076,-42.1025 L251.8,-44.016 L242.224,-49.2075 L241.65,-45.655"/>
</g>

<g fill="none" stroke="#000000" stroke-opacity="1" stroke-width="1" stroke-linecap="square" stroke-linejoin="bevel" transform="matrix(2,0,0,2,0.0032,194)"
font-family="Ubuntu" font-size="11" font-weight="400" font-style="normal" 
>
</g>

<g fill="none" stroke="#000000" stroke-opacity="1" stroke-width="1" stroke-linecap="square" stroke-linejoin="bevel" transform="matrix(2,0,0,2,0.0032,194)"
font-family="Ubuntu" font-size="11" font-weight="400" font-style="normal" 
>
</g>

<g fill="none" stroke="#000000" stroke-opacity="1" stroke-width="1" stroke-linecap="square" stroke-linejoin="bevel" transform="matrix(2,0,0,2,0.0032,194)"
font-family="Ubuntu" font-size="11" font-weight="400" font-style="normal" 
>
</g>

<g fill="none" stroke="#000000" stroke-opacity="1" stroke-width="1" stroke-linecap="square" stroke-linejoin="bevel" transform="matrix(2,0,0,2,0.0032,194)"
font-family="Ubuntu" font-size="11" font-weight="400" font-style="normal" 
>
</g>

<g fill="none" stroke="#000000" stroke-opacity="1" stroke-width="1" stroke-linecap="square" stroke-linejoin="round" transform="matrix(2,0,0,2,0.0032,194)"
font-family="Ubuntu" font-size="11" font-weight="400" font-style="normal" 
>
<path vector-effect="none" fill-rule="evenodd" d="M154.8,-79.793 C251.04,-80.442 431.48,-79.971 584.87,-70 C588.39,-69.771 591.98,-69.507 595.61,-69.216 "/>
</g>

<g fill="none" stroke="#000000" stroke-opacity="1" stroke-width="1" stroke-linecap="square" stroke-linejoin="bevel" transform="matrix(2,0,0,2,0.0032,194)"
font-family="Ubuntu" font-size="11" font-weight="400" font-style="normal" 
>
</g>

<g fill="none" stroke="#000000" stroke-opacity="1" stroke-width="1" stroke-linecap="square" stroke-linejoin="bevel" transform="matrix(2,0,0,2,640.971,7)"
font-family="Ubuntu" font-size="11" font-weight="400" font-style="normal" 
>
</g>

<g fill="none" stroke="#000000" stroke-opacity="1" stroke-width="1" stroke-linecap="square" stroke-linejoin="bevel" transform="matrix(2,0,0,2,640.971,7)"
font-family="sans" font-size="11" font-weight="100" font-style="normal" 
>
</g>

<g fill="#000000" fill-opacity="1" stroke="#000000" stroke-opacity="1" stroke-width="1" stroke-linecap="square" stroke-linejoin="round" transform="matrix(2,0,0,2,640.971,7)"
font-family="sans" font-size="11" font-weight="100" font-style="normal" 
>
<path vector-effect="none" fill-rule="nonzero" d="M2.79688,2.98438 L3.70313,2.98438 L0.90625,12.0156 L0,12.0156 L2.79688,2.98438 M8.57813,5.15625 L8.57813,6.09375 C8.29688,5.94792 8.00521,5.84115 7.70313,5.77344 C7.40104,5.70573 7.08854,5.67188 6.76563,5.67188 C6.27604,5.67188 5.90885,5.7474 5.66406,5.89844 C5.41927,6.04948 5.29688,6.27083 5.29688,6.5625 C5.29688,6.79167 5.38542,6.97135 5.5625,7.10156 C5.73958,7.23177 6.09375,7.35938 6.625,7.48438 L6.95313,7.5625 C7.66146,7.70833 8.16146,7.91927 8.45313,8.19531 C8.74479,8.47135 8.89063,8.85417 8.89063,9.34375 C8.89063,9.89583 8.67188,10.3359 8.23438,10.6641 C7.79688,10.9922 7.1875,11.1563 6.40625,11.1563 C6.08333,11.1563 5.7474,11.125 5.39844,11.0625 C5.04948,11 4.68229,10.9063 4.29688,10.7813 L4.29688,9.76563 C4.66146,9.95313 5.02083,10.0938 5.375,10.1875 C5.72917,10.2813 6.08333,10.3281 6.4375,10.3281 C6.89583,10.3281 7.25,10.2474 7.5,10.0859 C7.75,9.92448 7.875,9.70313 7.875,9.42188 C7.875,9.15104 7.78646,8.94271 7.60938,8.79688 C7.43229,8.65104 7.03646,8.51563 6.42188,8.39063 L6.07813,8.29688 C5.46354,8.17188 5.02083,7.97656 4.75,7.71094 C4.47917,7.44531 4.34375,7.07813 4.34375,6.60938 C4.34375,6.04688 4.54427,5.61198 4.94531,5.30469 C5.34635,4.9974 5.91667,4.84375 6.65625,4.84375 C7.02083,4.84375 7.36458,4.86979 7.6875,4.92188 C8.01042,4.97396 8.30729,5.05208 8.57813,5.15625 M14.7813,5.21875 L14.7813,6.14063 C14.5104,5.98438 14.2344,5.86719 13.9531,5.78906 C13.6719,5.71094 13.3854,5.67188 13.0938,5.67188 C12.4583,5.67188 11.9635,5.875 11.6094,6.28125 C11.2552,6.6875 11.0781,7.26042 11.0781,8 C11.0781,8.72917 11.2552,9.29688 11.6094,9.70313 C11.9635,10.1094 12.4583,10.3125 13.0938,10.3125 C13.3854,10.3125 13.6719,10.276 13.9531,10.2031 C14.2344,10.1302 14.5104,10.0156 14.7813,9.85938 L14.7813,10.7656 C14.5104,10.901 14.2266,11 13.9297,11.0625 C13.6328,11.125 13.3177,11.1563 12.9844,11.1563 C12.0781,11.1563 11.3594,10.8724 10.8281,10.3047 C10.2969,9.73698 10.0313,8.96875 10.0313,8 C10.0313,7.02083 10.2995,6.25 10.8359,5.6875 C11.3724,5.125 12.1094,4.84375 13.0469,4.84375 C13.3594,4.84375 13.6589,4.875 13.9453,4.9375 C14.2318,5 14.5104,5.09375 14.7813,5.21875 M19.2344,7.96875 C18.4427,7.96875 17.8932,8.0625 17.5859,8.25 C17.2786,8.4375 17.125,8.75 17.125,9.1875 C17.125,9.53125 17.2396,9.80729 17.4688,10.0156 C17.6979,10.224 18.0104,10.3281 18.4063,10.3281 C18.9583,10.3281 19.3984,10.1328 19.7266,9.74219 C20.0547,9.35156 20.2188,8.83854 20.2188,8.20313 L20.2188,7.96875 L19.2344,7.96875 M21.2031,7.5625 L21.2031,11 L20.2188,11 L20.2188,10.0938 C20,10.4583 19.7214,10.7266 19.3828,10.8984 C19.0443,11.0703 18.6302,11.1563 18.1406,11.1563 C17.526,11.1563 17.0365,10.9844 16.6719,10.6406 C16.3073,10.2969 16.125,9.83333 16.125,9.25 C16.125,8.57292 16.3516,8.0625 16.8047,7.71875 C17.2578,7.375 17.9375,7.20313 18.8438,7.20313 L20.2188,7.20313 L20.2188,7.10938 C20.2188,6.65104 20.0703,6.29688 19.7734,6.04688 C19.4766,5.79688 19.0573,5.67188 18.5156,5.67188 C18.1719,5.67188 17.8359,5.71354 17.5078,5.79688 C17.1797,5.88021 16.8646,6.00521 16.5625,6.17188 L16.5625,5.26563 C16.9271,5.11979 17.2813,5.01302 17.625,4.94531 C17.9688,4.8776 18.2969,4.84375 18.6094,4.84375 C19.4844,4.84375 20.1354,5.06771 20.5625,5.51563 C20.9896,5.96354 21.2031,6.64583 21.2031,7.5625 M28.2344,7.375 L28.2344,11 L27.25,11 L27.25,7.40625 C27.25,6.83333 27.1406,6.40625 26.9219,6.125 C26.7031,5.84375 26.3698,5.70313 25.9219,5.70313 C25.3906,5.70313 24.9714,5.8724 24.6641,6.21094 C24.3568,6.54948 24.2031,7.01042 24.2031,7.59375 L24.2031,11 L23.2031,11 L23.2031,4.98438 L24.2031,4.98438 L24.2031,5.92188 C24.4323,5.55729 24.7083,5.28646 25.0313,5.10938 C25.3542,4.93229 25.724,4.84375 26.1406,4.84375 C26.8281,4.84375 27.349,5.05729 27.7031,5.48438 C28.0573,5.91146 28.2344,6.54167 28.2344,7.375 "/>
</g>

<g fill="none" stroke="#000000" stroke-opacity="1" stroke-width="1" stroke-linecap="square" stroke-linejoin="bevel" transform="matrix(2,0,0,2,640.971,7)"
font-family="sans" font-size="11" font-weight="100" font-style="normal" 
>
</g>

<g fill="none" stroke="#000000" stroke-opacity="1" stroke-width="1" stroke-linecap="square" stroke-linejoin="bevel" transform="matrix(2,0,0,2,640.971,7)"
font-family="Ubuntu" font-size="11" font-weight="400" font-style="normal" 
>
</g>

<g fill="none" stroke="#000000" stroke-opacity="1" stroke-width="1" stroke-linecap="square" stroke-linejoin="bevel" transform="matrix(2,0,0,2,0.0032,194)"
font-family="Ubuntu" font-size="11" font-weight="400" font-style="normal" 
>
</g>

<g fill="#000000" fill-opacity="1" stroke="#000000" stroke-opacity="1" stroke-width="1" stroke-linecap="square" stroke-linejoin="round" transform="matrix(2,0,0,2,0.0032,194)"
font-family="Ubuntu" font-size="11" font-weight="400" font-style="normal" 
>
<path vector-effect="none" fill-rule="evenodd" d="M595.61,-69.216 L595.3,-65.618 L605.89,-68.33 L595.92,-72.814 L595.61,-69.216"/>
</g>

<g fill="none" stroke="#000000" stroke-opacity="1" stroke-width="1" stroke-linecap="square" stroke-linejoin="bevel" transform="matrix(2,0,0,2,0.0032,194)"
font-family="Ubuntu" font-size="11" font-weight="400" font-style="normal" 
>
</g>

<g fill="none" stroke="#000000" stroke-opacity="1" stroke-width="1" stroke-linecap="square" stroke-linejoin="bevel" transform="matrix(2,0,0,2,0.0032,194)"
font-family="Ubuntu" font-size="11" font-weight="400" font-style="normal" 
>
</g>

<g fill="none" stroke="#000000" stroke-opacity="1" stroke-width="1" stroke-linecap="square" stroke-linejoin="bevel" transform="matrix(2,0,0,2,0.0032,194)"
font-family="Ubuntu" font-size="11" font-weight="400" font-style="normal" 
>
</g>

<g fill="none" stroke="#000000" stroke-opacity="1" stroke-width="1" stroke-linecap="square" stroke-linejoin="bevel" transform="matrix(2,0,0,2,0.0032,194)"
font-family="Ubuntu" font-size="11" font-weight="400" font-style="normal" 
>
</g>

<g fill="none" stroke="#000000" stroke-opacity="1" stroke-width="1" stroke-linecap="square" stroke-linejoin="round" transform="matrix(2,0,0,2,0.0032,194)"
font-family="Ubuntu" font-size="11" font-weight="400" font-style="normal" 
>
<path vector-effect="none" fill-rule="evenodd" d="M775.1,-59 C797.69,-59 821.69,-59 843.49,-59 "/>
</g>

<g fill="none" stroke="#000000" stroke-opacity="1" stroke-width="1" stroke-linecap="square" stroke-linejoin="bevel" transform="matrix(2,0,0,2,0.0032,194)"
font-family="Ubuntu" font-size="11" font-weight="400" font-style="normal" 
>
</g>

<g fill="none" stroke="#000000" stroke-opacity="1" stroke-width="1" stroke-linecap="square" stroke-linejoin="bevel" transform="matrix(2,0,0,2,1579.47,47)"
font-family="Ubuntu" font-size="11" font-weight="400" font-style="normal" 
>
</g>

<g fill="none" stroke="#000000" stroke-opacity="1" stroke-width="1" stroke-linecap="square" stroke-linejoin="bevel" transform="matrix(2,0,0,2,1579.47,47)"
font-family="sans" font-size="11" font-weight="100" font-style="normal" 
>
</g>

<g fill="#000000" fill-opacity="1" stroke="#000000" stroke-opacity="1" stroke-width="1" stroke-linecap="square" stroke-linejoin="round" transform="matrix(2,0,0,2,1579.47,47)"
font-family="sans" font-size="11" font-weight="100" font-style="normal" 
>
<path vector-effect="none" fill-rule="nonzero" d="M2.79688,2.98438 L3.70313,2.98438 L0.90625,12.0156 L0,12.0156 L2.79688,2.98438 M9.0625,5.21875 L9.0625,6.14063 C8.79167,5.98438 8.51563,5.86719 8.23438,5.78906 C7.95313,5.71094 7.66667,5.67188 7.375,5.67188 C6.73958,5.67188 6.24479,5.875 5.89063,6.28125 C5.53646,6.6875 5.35938,7.26042 5.35938,8 C5.35938,8.72917 5.53646,9.29688 5.89063,9.70313 C6.24479,10.1094 6.73958,10.3125 7.375,10.3125 C7.66667,10.3125 7.95313,10.276 8.23438,10.2031 C8.51563,10.1302 8.79167,10.0156 9.0625,9.85938 L9.0625,10.7656 C8.79167,10.901 8.50781,11 8.21094,11.0625 C7.91406,11.125 7.59896,11.1563 7.26563,11.1563 C6.35938,11.1563 5.64063,10.8724 5.10938,10.3047 C4.57813,9.73698 4.3125,8.96875 4.3125,8 C4.3125,7.02083 4.58073,6.25 5.11719,5.6875 C5.65365,5.125 6.39063,4.84375 7.32813,4.84375 C7.64063,4.84375 7.9401,4.875 8.22656,4.9375 C8.51302,5 8.79167,5.09375 9.0625,5.21875 M15.4688,6.14063 C15.7188,5.69271 16.0156,5.36458 16.3594,5.15625 C16.7031,4.94792 17.1094,4.84375 17.5781,4.84375 C18.2031,4.84375 18.6849,5.0625 19.0234,5.5 C19.362,5.9375 19.5313,6.5625 19.5313,7.375 L19.5313,11 L18.5313,11 L18.5313,7.40625 C18.5313,6.82292 18.4297,6.39323 18.2266,6.11719 C18.0234,5.84115 17.7135,5.70313 17.2969,5.70313 C16.7865,5.70313 16.3828,5.8724 16.0859,6.21094 C15.7891,6.54948 15.6406,7.01042 15.6406,7.59375 L15.6406,11 L14.6406,11 L14.6406,7.40625 C14.6406,6.82292 14.5391,6.39323 14.3359,6.11719 C14.1328,5.84115 13.8177,5.70313 13.3906,5.70313 C12.8906,5.70313 12.4922,5.8724 12.1953,6.21094 C11.8984,6.54948 11.75,7.01042 11.75,7.59375 L11.75,11 L10.75,11 L10.75,4.98438 L11.75,4.98438 L11.75,5.92188 C11.9688,5.54688 12.237,5.27344 12.5547,5.10156 C12.8724,4.92969 13.2448,4.84375 13.6719,4.84375 C14.1094,4.84375 14.4818,4.95313 14.7891,5.17188 C15.0964,5.39063 15.3229,5.71354 15.4688,6.14063 M25.4531,5.89063 L25.4531,2.64063 L26.4375,2.64063 L26.4375,11 L25.4531,11 L25.4531,10.0938 C25.2448,10.4583 24.9818,10.7266 24.6641,10.8984 C24.3464,11.0703 23.9635,11.1563 23.5156,11.1563 C22.7969,11.1563 22.2083,10.8672 21.75,10.2891 C21.2917,9.71094 21.0625,8.94792 21.0625,8 C21.0625,7.05208 21.2917,6.28906 21.75,5.71094 C22.2083,5.13281 22.7969,4.84375 23.5156,4.84375 C23.9635,4.84375 24.3464,4.92969 24.6641,5.10156 C24.9818,5.27344 25.2448,5.53646 25.4531,5.89063 M22.0781,8 C22.0781,8.72917 22.2292,9.29948 22.5313,9.71094 C22.8333,10.1224 23.2448,10.3281 23.7656,10.3281 C24.2865,10.3281 24.6979,10.1224 25,9.71094 C25.3021,9.29948 25.4531,8.72917 25.4531,8 C25.4531,7.27083 25.3021,6.70052 25,6.28906 C24.6979,5.8776 24.2865,5.67188 23.7656,5.67188 C23.2448,5.67188 22.8333,5.8776 22.5313,6.28906 C22.2292,6.70052 22.0781,7.27083 22.0781,8 M33.0313,12.8281 L33.0313,13.5938 L27.3125,13.5938 L27.3125,12.8281 L33.0313,12.8281 M33.25,4.98438 L34.2969,4.98438 L36.1719,10.0313 L38.0625,4.98438 L39.1094,4.98438 L36.8438,11 L35.5,11 L33.25,4.98438 M45.6094,7.75 L45.6094,8.23438 L41.0625,8.23438 C41.1042,8.91146 41.3073,9.42708 41.6719,9.78125 C42.0365,10.1354 42.5469,10.3125 43.2031,10.3125 C43.5885,10.3125 43.9583,10.2656 44.3125,10.1719 C44.6667,10.0781 45.0208,9.94271 45.375,9.76563 L45.375,10.6875 C45.0208,10.8438 44.6563,10.9609 44.2813,11.0391 C43.9063,11.1172 43.5313,11.1563 43.1563,11.1563 C42.1875,11.1563 41.4245,10.8776 40.8672,10.3203 C40.3099,9.76302 40.0313,9.00521 40.0313,8.04688 C40.0313,7.06771 40.2969,6.28906 40.8281,5.71094 C41.3594,5.13281 42.0781,4.84375 42.9844,4.84375 C43.7865,4.84375 44.4245,5.10417 44.8984,5.625 C45.3724,6.14583 45.6094,6.85417 45.6094,7.75 M44.6094,7.45313 C44.6094,6.91146 44.4609,6.47917 44.1641,6.15625 C43.8672,5.83333 43.474,5.67188 42.9844,5.67188 C42.4323,5.67188 41.9922,5.82813 41.6641,6.14063 C41.3359,6.45313 41.1458,6.89063 41.0938,7.45313 L44.6094,7.45313 M47.2188,2.64063 L48.2188,2.64063 L48.2188,11 L47.2188,11 L47.2188,2.64063"/>
</g>

<g fill="none" stroke="#000000" stroke-opacity="1" stroke-width="1" stroke-linecap="square" stroke-linejoin="bevel" transform="matrix(2,0,0,2,1579.47,47)"
font-family="sans" font-size="11" font-weight="100" font-style="normal" 
>
</g>

<g fill="none" stroke="#000000" stroke-opacity="1" stroke-width="1" stroke-linecap="square" stroke-linejoin="bevel" transform="matrix(2,0,0,2,1579.47,47)"
font-family="Ubuntu" font-size="11" font-weight="400" font-style="normal" 
>
</g>

<g fill="none" stroke="#000000" stroke-opacity="1" stroke-width="1" stroke-linecap="square" stroke-linejoin="bevel" transform="matrix(2,0,0,2,0.0032,194)"
font-family="Ubuntu" font-size="11" font-weight="400" font-style="normal" 
>
</g>

<g fill="#000000" fill-opacity="1" stroke="#000000" stroke-opacity="1" stroke-width="1" stroke-linecap="square" stroke-linejoin="round" transform="matrix(2,0,0,2,0.0032,194)"
font-family="Ubuntu" font-size="11" font-weight="400" font-style="normal" 
>
<path vector-effect="none" fill-rule="evenodd" d="M843.49,-59 L843.49,-55.437 L853.67,-59 L843.49,-62.563 L843.49,-59"/>
</g>

<g fill="none" stroke="#000000" stroke-opacity="1" stroke-width="1" stroke-linecap="square" stroke-linejoin="bevel" transform="matrix(2,0,0,2,0.0032,194)"
font-family="Ubuntu" font-size="11" font-weight="400" font-style="normal" 
>
</g>

<g fill="none" stroke="#000000" stroke-opacity="1" stroke-width="1" stroke-linecap="square" stroke-linejoin="bevel" transform="matrix(1,0,0,1,0,0)"
font-family="Ubuntu" font-size="11" font-weight="400" font-style="normal" 
>
</g>
</g>
</svg>
